<?xml version="1.0" standalone="no"?>
<!DOCTYPE svg PUBLIC "-//W3C//DTD SVG 20010904//EN"
 "http://www.w3.org/TR/2001/REC-SVG-20010904/DTD/svg10.dtd">
<svg version="1.0" xmlns="http://www.w3.org/2000/svg"
 width="1280.000000pt" height="1280.000000pt" viewBox="0 0 1280.000000 1280.000000"
 preserveAspectRatio="xMidYMid meet">

<g transform="translate(0.000000,1280.000000) scale(0.100000,-0.100000)"
fill="#000000" stroke="none">
<path d="M38 12793 c7 -3 16 -2 19 1 4 3 -2 6 -13 5 -11 0 -14 -3 -6 -6z"/>
<path d="M700 12773 c-28 -63 -37 -99 -29 -120 16 -44 69 -15 69 38 0 16 5 29
10 29 6 0 10 18 10 40 0 35 -3 40 -23 40 -16 0 -28 -9 -37 -27z"/>
<path d="M1790 12790 c0 -5 7 -10 15 -10 8 0 15 5 15 10 0 6 -7 10 -15 10 -8
0 -15 -4 -15 -10z"/>
<path d="M2456 12775 c-4 -14 -4 -31 0 -36 11 -19 -7 -97 -32 -134 -13 -20
-24 -45 -24 -55 0 -19 -5 -22 -40 -24 -8 -1 -16 -11 -18 -23 -2 -13 -7 -23
-11 -23 -11 0 -30 -49 -29 -75 0 -11 5 -25 10 -32 5 -6 10 -31 11 -55 1 -34
-6 -54 -35 -97 -20 -29 -34 -60 -31 -67 6 -17 -16 -74 -28 -74 -5 0 -8 -10 -8
-22 0 -13 -1 -30 -4 -38 -2 -8 -7 -27 -11 -42 -5 -16 -3 -35 5 -49 12 -24 14
-77 4 -110 -8 -25 -31 -24 -52 1 -10 11 -23 20 -29 20 -7 0 -14 5 -16 12 -6
18 -78 -18 -79 -40 -4 -45 -4 -59 4 -85 8 -22 4 -34 -18 -63 -21 -28 -30 -33
-41 -23 -8 6 -14 18 -14 25 0 8 -4 14 -8 14 -5 0 -15 18 -22 40 l-13 40 -21
-25 c-12 -14 -32 -25 -44 -25 -13 0 -22 -6 -22 -15 0 -8 -4 -15 -9 -15 -5 0
-11 -9 -14 -20 -5 -21 -41 -28 -52 -10 -3 6 -21 10 -38 10 -45 0 -112 23 -112
38 0 19 -19 17 -30 -4 -12 -23 -126 -134 -137 -134 -5 0 -8 -7 -8 -15 0 -7 -6
-18 -13 -22 -11 -7 -38 -44 -89 -122 -36 -54 -43 -61 -59 -61 -34 0 -50 -13
-70 -57 -11 -24 -27 -47 -35 -50 -19 -7 -44 -55 -44 -85 0 -13 -6 -35 -14 -50
-8 -15 -14 -55 -14 -93 0 -55 -3 -70 -21 -86 -11 -11 -21 -29 -21 -39 0 -11
-9 -28 -20 -37 -11 -10 -20 -24 -20 -33 0 -13 -1 -13 -10 0 -8 12 -12 13 -19
2 -5 -8 0 -43 11 -88 l20 -75 -22 -44 c-12 -25 -26 -45 -31 -45 -5 0 -9 -6 -9
-13 0 -8 -14 -26 -30 -40 -17 -15 -30 -34 -30 -42 0 -8 -4 -23 -9 -33 -6 -9
-24 -46 -41 -82 -38 -78 -49 -97 -73 -122 -10 -10 -22 -30 -27 -43 -7 -18 -17
-25 -35 -25 -16 0 -25 -6 -25 -16 0 -10 5 -12 12 -7 7 4 2 -7 -12 -24 -14 -18
-32 -32 -41 -32 -26 -1 -42 -28 -59 -95 -16 -63 -10 -133 12 -147 7 -4 6 -14
0 -26 -14 -25 -42 -49 -42 -35 0 5 -11 9 -25 8 -18 -1 -26 -8 -31 -28 -3 -16
-10 -28 -15 -28 -16 0 -64 -54 -66 -75 -5 -37 -9 -54 -16 -61 -3 -4 -2 -14 3
-24 7 -12 4 -23 -9 -36 -13 -14 -20 -44 -25 -105 -6 -80 -5 -86 19 -119 28
-38 32 -62 11 -79 -16 -14 -43 -4 -66 24 -14 17 -64 42 -94 47 -13 2 -26 -10
-44 -45 -32 -58 -63 -70 -95 -36 l-21 23 -8 -32 c-5 -17 -13 -34 -18 -37 -6
-3 -10 -15 -10 -25 0 -11 -11 -30 -25 -44 l-25 -25 0 -311 c0 -305 0 -310 19
-298 45 28 83 -67 47 -114 -18 -24 -32 -23 -50 4 -15 20 -16 -94 -16 -1236 0
-1179 1 -1261 17 -1279 23 -25 23 -95 0 -112 -16 -11 -17 -68 -17 -856 l1
-844 22 -16 c12 -9 38 -19 58 -23 21 -3 48 -15 62 -26 14 -11 30 -20 37 -20 6
0 53 -20 103 -45 51 -25 98 -45 105 -45 7 0 12 -4 12 -8 0 -4 22 -16 50 -26
27 -10 50 -22 50 -27 0 -5 30 -23 67 -40 38 -17 70 -34 73 -38 3 -3 30 -19 60
-35 79 -41 113 -58 130 -67 8 -5 31 -16 50 -24 19 -9 41 -22 50 -29 8 -8 29
-17 47 -21 17 -3 37 -12 43 -20 6 -7 82 -48 168 -90 197 -96 270 -134 302
-154 14 -9 38 -23 54 -31 16 -8 37 -27 45 -42 15 -27 27 -32 61 -29 27 3 56
-42 69 -104 14 -67 42 -116 104 -180 23 -24 57 -59 74 -78 22 -23 91 -64 205
-120 172 -85 259 -117 316 -117 18 0 49 -14 78 -35 165 -120 191 -131 309
-141 88 -7 148 -19 255 -53 82 -25 92 -26 297 -24 l212 3 40 -43 c65 -69 101
-111 101 -121 0 -5 -8 -2 -18 7 -10 10 -22 17 -27 17 -5 0 -16 7 -26 16 -18
16 -44 11 -34 -7 4 -5 -2 -10 -12 -10 -10 -1 -30 -3 -45 -5 -19 -2 -28 2 -28
11 0 7 -3 20 -6 29 -4 11 2 19 17 25 22 8 22 10 6 16 -14 6 -15 10 -6 16 20
12 -60 23 -90 13 -24 -9 -26 -13 -23 -67 2 -42 -1 -62 -12 -73 -37 -36 -3 -92
79 -130 53 -25 82 -48 107 -82 13 -18 79 -71 178 -142 59 -43 160 -118 217
-162 24 -18 55 -40 70 -48 16 -8 37 -23 48 -33 25 -22 92 -75 129 -102 16 -11
33 -25 40 -30 6 -6 22 -19 36 -29 l25 -18 -45 8 c-79 14 -112 8 -142 -26 -21
-23 -28 -41 -28 -71 0 -23 -7 -62 -15 -88 -24 -71 -63 -249 -70 -316 -4 -33
-13 -92 -21 -132 -19 -97 -18 -117 9 -148 22 -26 100 -52 272 -90 33 -7 94
-20 135 -30 63 -14 82 -14 119 -4 35 10 46 10 49 1 7 -23 65 -44 136 -49 57
-4 79 -2 106 12 19 10 50 22 68 26 30 6 38 3 83 -37 35 -31 58 -44 79 -44 16
0 45 -7 64 -17 29 -13 39 -14 65 -3 17 7 31 16 31 21 0 5 16 17 35 26 21 10
34 22 31 30 -3 7 1 13 9 13 8 0 15 -4 15 -9 0 -17 53 -73 93 -98 49 -31 140
-63 179 -63 15 0 28 -5 28 -10 0 -6 7 -13 15 -16 17 -7 112 -93 211 -191 l72
-73 903 0 c779 0 905 2 919 15 14 13 19 13 44 0 20 -11 61 -15 136 -15 l109 0
-4 175 c-2 97 -8 181 -13 188 -13 17 -21 66 -11 72 10 7 62 -14 71 -28 4 -7 5
-41 1 -76 l-6 -63 23 12 c32 17 44 0 43 -60 -1 -60 -7 -69 -35 -51 -21 13 -21
12 -15 -38 11 -91 27 -131 54 -131 18 0 23 5 23 26 0 27 20 54 42 54 22 0 54
62 67 131 7 37 23 84 36 105 21 35 24 37 30 19 21 -62 28 -72 68 -90 25 -12
43 -28 45 -40 2 -11 24 -41 50 -67 l45 -47 -24 -35 c-13 -20 -27 -36 -31 -36
-5 0 -8 -4 -8 -10 0 -6 38 -10 94 -10 l95 0 11 55 c6 30 18 58 26 63 8 4 16
25 18 45 5 51 13 56 40 22 l23 -29 23 22 c26 24 66 29 72 10 5 -14 78 52 78
69 0 6 6 13 14 16 7 3 19 27 25 53 7 27 27 73 46 104 18 30 40 81 49 112 9 31
21 60 26 63 6 4 29 4 52 0 35 -6 42 -12 56 -46 8 -21 21 -39 29 -39 18 0 32
39 26 71 -3 16 3 34 15 49 l20 25 26 -28 c14 -15 30 -27 36 -27 23 0 53 95 60
187 5 60 13 101 24 118 12 18 15 36 11 59 -9 46 10 56 115 59 28 1 56 10 72
22 14 11 33 25 42 30 30 18 48 145 26 185 -7 13 -6 19 6 24 9 4 18 -2 23 -17
8 -20 10 -18 20 18 6 22 11 46 11 53 0 6 4 12 9 12 5 0 16 29 24 66 9 36 23
75 31 87 9 12 26 37 37 55 12 17 25 32 30 32 5 0 9 18 9 41 0 22 -4 38 -8 35
-5 -3 -20 6 -35 20 -23 22 -27 33 -27 84 0 36 -4 60 -11 60 -6 0 -8 9 -3 23 9
29 5 28 58 32 38 3 48 0 56 -16 6 -10 10 -25 9 -32 -4 -36 2 -40 27 -16 23 22
25 30 22 88 -3 55 0 65 17 75 31 17 36 28 29 68 -3 21 -3 52 1 69 6 25 11 30
28 26 12 -3 31 -2 42 3 33 12 46 2 33 -26 -6 -13 -15 -24 -20 -24 -12 0 -10
-48 3 -55 15 -10 20 -1 25 37 6 60 32 162 54 217 27 70 23 82 -23 68 -20 -6
-33 -15 -31 -19 2 -3 0 -9 -6 -13 -5 -3 -10 -21 -10 -40 0 -26 -8 -40 -37 -66
-31 -27 -39 -30 -41 -16 -2 9 -8 17 -13 17 -5 0 -7 11 -5 25 8 43 17 65 27 65
6 0 8 4 4 9 -3 6 3 14 12 20 16 9 15 10 -7 11 -14 0 -31 4 -39 9 -17 11 17 18
119 24 44 3 82 13 117 31 65 32 69 32 49 1 -10 -14 -20 -49 -23 -78 -3 -29
-13 -82 -23 -118 -14 -52 -16 -77 -8 -112 8 -40 6 -51 -21 -108 -16 -35 -29
-71 -29 -79 3 -44 -3 -70 -17 -70 -8 0 -21 -13 -29 -29 -16 -29 -36 -134 -36
-185 0 -24 2 -27 15 -16 8 7 15 22 15 34 0 22 31 110 43 122 4 4 7 16 7 26 0
21 20 24 38 6 25 -25 1 -143 -46 -222 -23 -37 -64 -151 -81 -221 -6 -27 -21
-62 -32 -78 -27 -37 -94 -173 -109 -222 -7 -22 -17 -48 -21 -58 -5 -9 -18 -41
-29 -70 -21 -57 -63 -102 -86 -93 -19 7 -29 -6 -77 -103 -29 -60 -51 -90 -71
-101 -16 -9 -32 -22 -36 -30 -4 -8 -14 -28 -23 -45 -9 -16 -26 -49 -37 -72
-24 -50 -35 -53 -62 -18 -16 21 -27 25 -56 22 -30 -3 -43 -12 -70 -48 -19 -24
-52 -52 -73 -62 -23 -11 -45 -29 -52 -45 -6 -15 -26 -47 -44 -71 -18 -24 -33
-50 -33 -58 0 -8 -9 -36 -20 -62 -15 -34 -29 -50 -50 -58 -33 -12 -39 -39 -20
-87 l10 -26 1129 0 1130 0 -5 32 c-3 21 0 40 9 53 13 17 17 18 32 5 13 -10 16
-24 12 -52 l-5 -38 669 0 669 0 0 6270 c0 5321 -2 6270 -14 6270 -43 0 -49
174 -8 230 l23 30 -3041 0 c-2889 0 -3040 -1 -3040 -17 1 -21 33 -63 49 -63 6
0 11 -7 11 -16 0 -24 -20 -55 -31 -48 -6 3 -26 -2 -45 -11 -42 -20 -102 -13
-132 16 -26 24 -46 16 -72 -28 l-20 -34 -29 20 c-16 12 -34 21 -40 21 -6 0
-11 5 -11 10 0 6 -5 10 -12 10 -6 0 -19 7 -29 16 -15 13 -23 14 -52 4 -31 -12
-36 -11 -61 11 -28 24 -74 37 -134 38 -19 1 -31 -3 -27 -8 7 -13 -26 -30 -44
-23 -9 3 -5 11 15 27 27 22 28 24 9 31 -11 4 -27 16 -36 27 l-16 20 -31 -21
c-16 -12 -37 -22 -45 -22 -20 0 -32 -50 -15 -61 7 -5 21 -6 31 -3 12 4 17 0
17 -13 0 -28 -15 -44 -41 -45 -13 -1 -33 -10 -45 -20 -11 -10 -31 -20 -42 -23
-30 -5 -43 -14 -41 -28 1 -7 1 -23 0 -36 -1 -21 -4 -23 -35 -17 -35 7 -86 -9
-86 -27 0 -5 -7 -6 -16 -3 -9 3 -12 2 -9 -5 4 -5 2 -15 -3 -22 -5 -7 -15 -30
-22 -52 -18 -55 -18 -56 -46 -43 -22 10 -28 9 -48 -15 -13 -15 -33 -27 -44
-27 -22 0 -36 -31 -48 -108 -6 -39 -11 -45 -56 -68 -28 -14 -53 -34 -55 -45
-5 -19 -6 -19 -17 3 -12 25 -52 36 -68 20 -6 -6 -12 -27 -13 -47 -4 -67 -42
-73 -72 -10 -9 19 -21 35 -26 35 -6 0 -25 -16 -43 -35 -24 -24 -34 -43 -34
-66 0 -21 -10 -43 -30 -66 -16 -18 -30 -43 -30 -55 0 -22 -47 -98 -60 -98 -4
0 -15 -18 -24 -40 -17 -42 -22 -45 -46 -30 -25 16 -40 -9 -40 -68 0 -33 -6
-62 -14 -71 -21 -24 -66 -114 -66 -131 1 -21 24 -50 41 -50 23 0 89 52 89 70
0 10 7 23 15 30 8 7 15 17 15 22 0 5 13 28 29 51 15 23 31 52 35 65 4 12 12
22 17 22 5 0 9 6 9 14 0 8 9 24 20 37 l19 24 1 -22 c0 -13 -4 -23 -8 -23 -9 0
-63 -86 -123 -198 -20 -36 -45 -71 -55 -77 -10 -5 -30 -17 -44 -26 -14 -9 -70
-41 -125 -71 -55 -31 -117 -65 -137 -76 -44 -25 -50 -19 -12 10 36 29 46 61
30 93 -20 38 8 133 51 169 37 32 90 121 109 188 11 37 12 57 4 86 -5 20 -10
48 -9 62 l0 25 11 -22 c11 -23 38 -32 38 -13 0 6 7 10 15 10 8 0 15 4 15 9 0
5 20 17 44 26 45 17 77 51 91 95 4 14 18 34 30 45 29 25 41 87 21 105 -12 9
-22 9 -47 -4 -18 -9 -47 -16 -65 -16 -24 0 -34 -5 -39 -19 -3 -11 -30 -41 -60
-67 -31 -26 -55 -55 -55 -66 0 -14 -5 -18 -17 -14 -13 4 -25 -5 -40 -29 -13
-19 -23 -39 -23 -45 0 -16 -15 -12 -44 11 -28 22 -46 18 -46 -11 0 -10 -18
-37 -39 -61 -27 -28 -42 -55 -47 -83 -9 -54 -25 -83 -73 -130 -42 -41 -67 -95
-57 -123 4 -9 1 -20 -6 -24 -8 -5 -17 3 -25 23 -11 27 -11 42 3 99 16 66 16
68 -5 95 -40 51 -21 104 37 104 41 1 68 17 86 52 7 13 26 48 41 78 16 30 62
93 102 140 40 47 80 101 89 120 9 19 25 45 36 57 11 12 34 50 52 85 22 42 42
68 62 78 48 25 126 86 159 125 74 87 81 93 136 105 48 11 58 17 75 49 10 19
27 37 38 39 28 6 66 -19 66 -43 0 -17 -10 -23 -60 -34 -47 -11 -60 -18 -60
-32 0 -42 66 -51 101 -14 19 20 34 25 74 25 48 0 50 1 52 30 2 33 43 112 76
148 18 19 28 22 63 16 26 -4 44 -2 48 5 5 8 -424 11 -1552 11 l-1560 0 -6 -25z
m9122 -361 c4 -25 -21 -59 -36 -50 -16 9 -15 49 0 64 16 16 32 10 36 -14z
m-780 -487 c2 -19 -1 -27 -12 -27 -17 0 -31 34 -21 50 11 18 30 5 33 -23z
m-5452 16 c-11 -3 -36 -15 -55 -27 -59 -37 -61 -38 -61 -27 0 14 90 60 115 59
19 0 19 0 1 -5z m1550 -93 c321 -26 570 -83 708 -164 97 -57 231 -221 283
-346 42 -101 42 -98 -162 -506 -102 -203 -185 -373 -185 -378 0 -20 34 23 93
118 35 55 111 173 168 261 58 88 129 197 158 243 31 47 60 82 70 82 25 0 315
-150 431 -223 58 -36 132 -90 164 -119 l60 -53 130 0 c128 0 133 -1 196 -32
141 -70 269 -239 270 -356 0 -64 -36 -122 -93 -148 -53 -24 -165 -25 -231 -3
-26 9 -50 13 -54 9 -11 -11 65 -72 127 -103 47 -23 73 -28 162 -32 l107 -5
126 -121 126 -120 0 -125 c0 -68 5 -155 10 -194 14 -101 42 -215 52 -215 5 0
6 45 2 103 -7 106 11 365 26 380 15 16 86 -61 118 -128 41 -83 86 -229 111
-355 5 -25 20 -101 34 -170 14 -69 35 -186 46 -260 12 -74 23 -147 26 -162 2
-16 3 -28 0 -28 -2 0 -70 67 -152 148 -234 235 -393 364 -726 593 -121 84
-147 112 -58 63 28 -15 54 -24 58 -20 4 4 3 10 -3 14 -6 4 -41 32 -80 63 -342
274 -856 478 -1444 573 -333 54 -425 59 -1110 58 -705 0 -779 -5 -1180 -71
-68 -11 -326 -69 -360 -81 -14 -4 -52 -16 -85 -25 -110 -31 -359 -127 -475
-183 -130 -63 -287 -157 -399 -239 -140 -103 -171 -144 -70 -92 34 16 63 28
66 26 2 -3 -5 -8 -16 -12 -12 -3 -21 -10 -21 -14 0 -3 -15 -15 -32 -26 -57
-33 -342 -239 -368 -265 -3 -3 -21 -17 -40 -31 -19 -15 -46 -37 -60 -49 -14
-12 -45 -39 -70 -59 -70 -57 -145 -126 -273 -256 l-118 -120 6 60 c10 83 51
326 81 470 66 319 131 497 206 560 25 22 33 24 43 13 19 -20 35 -228 29 -363
-6 -141 4 -138 36 11 14 65 23 152 27 257 l6 158 126 119 125 119 86 -1 c105
-1 179 23 258 84 74 58 68 73 -18 43 -23 -8 -72 -15 -109 -15 -110 1 -178 45
-201 131 -35 129 136 352 314 412 55 19 182 23 234 8 31 -9 36 -7 80 36 25 26
98 81 162 122 118 79 425 241 454 241 16 0 44 -41 345 -504 52 -80 105 -157
118 -173 24 -28 24 -28 17 -3 -4 14 -87 184 -185 377 -105 208 -179 364 -179
380 1 111 153 340 288 435 53 37 155 79 247 102 39 9 86 21 105 26 51 13 185
31 335 45 164 15 730 18 901 5z m1471 -70 c36 -13 80 -38 104 -61 23 -21 46
-39 51 -39 15 0 13 -80 -4 -122 -14 -36 -21 -35 -49 7 -18 26 -31 35 -51 35
-16 0 -28 5 -28 11 0 7 9 9 21 6 15 -4 23 1 31 19 17 37 -6 74 -46 74 -46 0
-125 42 -142 75 -18 34 -2 50 30 31 12 -7 49 -23 83 -36z m-4111 -122 c-11
-42 -22 -53 -40 -39 -21 17 -20 50 1 73 15 16 19 17 31 4 9 -9 12 -23 8 -38z
m3954 -278 c0 -5 -2 -10 -4 -10 -3 0 -8 5 -11 10 -3 6 -1 10 4 10 6 0 11 -4
11 -10z m-3930 -29 c11 -21 14 -74 4 -83 -7 -7 -54 39 -54 53 0 17 20 49 30
49 5 0 14 -9 20 -19z m3976 4 c18 -13 18 -14 -4 -8 -12 3 -25 9 -28 14 -8 14
10 11 32 -6z m-3856 -50 c0 -20 -5 -25 -25 -25 -18 0 -25 5 -25 18 0 24 8 32
32 32 13 0 18 -7 18 -25z m-240 -21 c0 -21 -38 -54 -62 -54 -13 0 -18 7 -18
28 0 37 6 42 47 42 24 0 33 -4 33 -16z m-230 -40 c0 -15 -92 -114 -101 -108
-19 11 -8 37 34 75 38 35 67 49 67 33z m494 -90 c-32 -26 -77 -58 -99 -73 -43
-28 -71 -50 -116 -93 -30 -29 -41 -32 -74 -18 -17 7 -15 9 12 9 26 1 46 13 93
59 56 55 73 82 50 82 -5 0 -10 9 -10 20 0 16 7 20 35 20 19 0 35 -4 35 -9 0
-8 62 16 100 39 41 24 27 5 -26 -36z m5576 6 c0 -5 -4 -10 -10 -10 -5 0 -10 5
-10 10 0 6 5 10 10 10 6 0 10 -4 10 -10z m1040 -30 c0 -32 -26 -43 -36 -15 -9
21 3 45 21 45 10 0 15 -10 15 -30z m-7283 -102 c-3 -7 -5 -2 -5 12 0 14 2 19
5 13 2 -7 2 -19 0 -25z m7000 -12 c-4 -9 -11 -16 -17 -16 -11 0 -14 33 -3 44
11 10 26 -11 20 -28z m-1513 -22 c10 -27 7 -64 -7 -64 -21 0 -37 22 -37 52 0
21 5 28 19 28 10 0 22 -7 25 -16z m81 -234 c10 -11 16 -20 13 -20 -3 0 -13 9
-23 20 -10 11 -16 20 -13 20 3 0 13 -9 23 -20z m76 -82 c10 -13 18 -30 18 -38
-1 -13 -1 -13 -6 0 -3 8 -15 25 -26 38 -11 12 -17 22 -13 22 4 0 16 -10 27
-22z m78 -158 c0 -8 -9 3 -19 25 -24 53 -24 70 0 25 11 -19 19 -42 19 -50z
m28 -122 c-3 -8 -6 -5 -6 6 -1 11 2 17 5 13 3 -3 4 -12 1 -19z m0 -120 c-2
-13 -4 -3 -4 22 0 25 2 35 4 23 2 -13 2 -33 0 -45z m-6566 -4 c15 -42 -16
-109 -46 -98 -19 8 -29 78 -15 103 15 30 48 27 61 -5z m526 -26 c-3 -8 -6 -5
-6 6 -1 11 2 17 5 13 3 -3 4 -12 1 -19z m6877 3 c8 -12 -3 -41 -15 -41 -5 0
-9 11 -9 25 0 25 14 34 24 16z m-832 -51 c4 0 8 -5 8 -10 0 -6 -8 -5 -20 2
-11 7 -20 22 -19 33 0 19 1 19 11 -2 6 -13 15 -23 20 -23z m-6732 -30 c0 -11
-4 -20 -10 -20 -5 0 -10 9 -10 20 0 11 5 20 10 20 6 0 10 -9 10 -20z m-1918
-40 c8 -17 15 -43 14 -58 -1 -21 -6 -28 -27 -30 -42 -5 -65 64 -32 100 22 25
28 23 45 -12z m8702 14 c5 -14 4 -15 -9 -4 -17 14 -19 20 -6 20 5 0 12 -7 15
-16z m-6357 -84 c6 -22 18 -26 28 -10 3 6 11 10 17 10 19 0 -25 -42 -59 -56
-48 -21 -52 -18 -35 31 15 47 40 60 49 25z m6423 10 c0 -5 -2 -10 -4 -10 -3 0
-8 5 -11 10 -3 6 -1 10 4 10 6 0 11 -4 11 -10z m-6525 -105 c-28 -23 -45 -31
-45 -21 0 5 63 46 70 46 3 0 -8 -11 -25 -25z m3620 -5 c116 -5 262 -15 325
-21 143 -13 455 -57 495 -69 17 -4 50 -11 75 -14 36 -5 228 -52 395 -96 122
-32 504 -172 572 -209 10 -6 78 -40 152 -76 471 -232 866 -565 1093 -925 144
-226 258 -586 314 -985 21 -154 31 -1003 15 -1260 -38 -588 -133 -1035 -318
-1505 -76 -192 -233 -490 -331 -629 -15 -21 -42 -60 -61 -87 -199 -283 -559
-622 -847 -799 -315 -193 -553 -301 -919 -419 -106 -34 -305 -87 -396 -105
-24 -5 -78 -16 -119 -24 -204 -42 -667 -99 -735 -91 -16 2 -115 13 -219 24
-172 19 -336 44 -456 69 -25 5 -70 14 -100 20 -238 48 -615 165 -800 248 -383
174 -634 328 -895 552 -95 82 -327 325 -401 421 -232 299 -405 619 -535 991
-133 379 -202 723 -251 1239 -18 187 -18 1082 0 1245 33 308 79 516 168 758
50 139 131 307 176 367 10 14 46 63 80 110 115 159 373 399 593 552 337 234
820 444 1295 563 331 83 632 127 1015 150 288 16 370 17 620 5z m3299 -26 c22
-21 20 -34 -4 -34 -15 0 -20 7 -20 25 0 29 3 30 24 9z m-6980 -22 c-20 -17
-83 -138 -99 -192 -4 -14 -14 -34 -22 -45 -15 -20 -15 -20 -9 2 5 15 -1 29
-19 49 -30 32 -40 64 -31 99 9 34 32 42 67 21 16 -9 29 -14 29 -9 0 13 81 93
93 93 7 -1 3 -9 -9 -18z m9178 -9 c15 -13 18 -32 18 -114 0 -54 -5 -121 -11
-151 -6 -29 -15 -78 -20 -108 -22 -114 -30 -143 -70 -223 -22 -45 -61 -109
-87 -142 -38 -48 -54 -61 -80 -63 -26 -3 -32 0 -32 15 0 10 -7 28 -15 41 -21
29 -45 158 -45 240 0 202 95 432 205 498 47 28 110 32 137 7z m-10693 -53 c8
-19 26 -36 47 -45 19 -8 34 -15 34 -17 0 -2 -14 -4 -30 -5 -17 -1 -30 2 -30 7
0 6 -5 10 -11 10 -23 0 -55 52 -43 71 9 16 19 10 33 -21z m9511 -48 c0 -14
-38 -44 -50 -40 -14 4 17 48 36 48 8 0 14 -4 14 -8z m-9380 -22 c0 -5 -2 -10
-4 -10 -3 0 -8 5 -11 10 -3 6 -1 10 4 10 6 0 11 -4 11 -10z m8370 -300 c0 -5
-2 -10 -4 -10 -3 0 -8 5 -11 10 -3 6 -1 10 4 10 6 0 11 -4 11 -10z m108 -8 c3
-9 -3 -13 -19 -10 -12 1 -24 9 -27 16 -3 9 3 13 19 10 12 -1 24 -9 27 -16z
m-8798 -352 c0 -16 -4 -30 -10 -30 -5 0 -10 14 -10 30 0 17 5 30 10 30 6 0 10
-13 10 -30z m-550 -99 c0 -11 -4 -23 -10 -26 -6 -4 -10 5 -10 19 0 14 5 26 10
26 6 0 10 -9 10 -19z m9945 -41 c3 -5 1 -18 -4 -27 -6 -10 -11 -14 -11 -10 0
4 -9 3 -21 -3 -31 -17 -36 -3 -9 25 25 27 35 30 45 15z m-10547 -122 c19 -19
15 -58 -7 -58 -20 0 -34 32 -24 56 6 17 15 18 31 2z m-95 -10 c6 -18 -11 -48
-27 -48 -15 0 -25 27 -19 48 3 6 13 12 23 12 10 0 20 -6 23 -12z m2441 -14
c18 -18 21 -56 6 -85 -14 -25 -35 -24 -54 3 -40 57 3 128 48 82z m9774 -10 c2
-12 -4 -24 -12 -27 -19 -7 -40 18 -32 39 8 22 40 13 44 -12z m-2051 -466 c-3
-8 -6 -5 -6 6 -1 11 2 17 5 13 3 -3 4 -12 1 -19z m383 -144 c0 -37 -23 -59
-59 -57 -14 1 -18 -1 -8 -3 12 -4 17 -16 17 -40 0 -29 -6 -38 -31 -52 -51 -28
-78 -52 -74 -65 9 -32 14 -77 7 -77 -4 0 -23 30 -42 66 -19 36 -59 97 -88 136
-29 39 -51 72 -49 74 2 2 23 -13 47 -34 26 -21 41 -30 37 -20 -10 29 20 50 62
43 47 -7 101 24 101 59 0 31 17 37 52 17 21 -12 28 -24 28 -47z m-8652 24 c18
-18 14 -73 -6 -98 -17 -21 -19 -21 -35 -5 -31 30 -18 115 18 115 6 0 16 -5 23
-12z m-1090 -15 c-5 -25 -28 -28 -28 -4 0 12 6 21 16 21 9 0 14 -7 12 -17z
m9402 -16 c0 -5 -4 -5 -10 -2 -5 3 -10 14 -10 23 0 15 2 15 10 2 5 -8 10 -19
10 -23z m1040 -112 c0 -17 5 -18 29 -6 14 8 21 4 34 -18 10 -17 28 -31 45 -34
24 -5 30 -12 35 -41 3 -20 2 -49 -3 -65 -4 -16 -8 -78 -8 -139 0 -112 -1 -117
-52 -198 -19 -29 -19 -34 -5 -75 13 -37 14 -55 4 -115 -13 -84 -13 -84 -59
-111 -103 -61 -335 -55 -382 11 -15 21 -38 121 -38 168 0 9 12 31 27 49 21 24
27 41 26 73 -3 68 16 218 35 275 28 90 126 177 225 202 28 7 47 17 47 25 0 8
9 14 20 14 11 0 20 -7 20 -15z m-8540 -145 c0 -6 -9 -43 -19 -83 -36 -136 -71
-336 -98 -552 -24 -200 -23 -670 1 -852 10 -73 16 -138 13 -145 -8 -24 -55 87
-80 192 -33 132 -57 387 -57 591 0 89 -4 160 -9 164 -10 6 -16 -23 -25 -115
-3 -30 -10 -95 -16 -145 -6 -49 -12 -160 -13 -247 -3 -209 -12 -211 -37 -9
-18 151 -5 410 31 591 45 229 139 452 234 558 54 59 75 74 75 52z m7406 -46
c117 -134 192 -320 247 -604 19 -100 21 -147 21 -365 -1 -193 -4 -262 -16
-305 l-16 -55 -1 145 c-1 170 -37 540 -54 557 -6 6 -17 -118 -12 -128 9 -14
-13 -398 -30 -509 -16 -111 -44 -217 -76 -287 -23 -51 -42 -57 -35 -10 75 461
43 1021 -88 1560 -19 75 -4 76 60 1z m494 -65 c0 -24 -4 -38 -10 -34 -17 10
-11 75 7 75 2 0 3 -18 3 -41z m-110 -164 c0 -8 -2 -15 -4 -15 -2 0 -6 7 -10
15 -3 8 -1 15 4 15 6 0 10 -7 10 -15z m27 -142 c-3 -10 -5 -4 -5 12 0 17 2 24
5 18 2 -7 2 -21 0 -30z m21 -81 c-1 -34 -3 -41 -9 -27 -11 29 -11 87 1 80 5
-3 9 -27 8 -53z m34 -395 c-9 -39 -10 -37 -10 33 0 64 1 70 9 42 6 -21 6 -49
1 -75z m1588 19 c0 -41 -10 -58 -26 -45 -15 12 -19 51 -7 62 15 15 33 6 33
-17z m-11862 -8 c18 -18 15 -68 -3 -68 -19 0 -40 43 -32 64 8 19 19 20 35 4z
m1102 -578 c0 -25 -7 -43 -21 -56 -20 -18 -21 -18 -32 1 -24 40 -25 63 -5 95
18 31 20 32 39 15 12 -12 19 -31 19 -55z m-1271 -175 c36 -39 40 -48 30 -66
-8 -16 -16 -19 -37 -14 -15 4 -27 7 -27 8 0 1 -8 16 -17 34 -22 38 -24 83 -4
83 7 0 32 -20 55 -45z m705 -101 c7 -19 -2 -37 -15 -29 -12 8 -12 45 0 45 5 0
12 -7 15 -16z m-669 -176 c8 -32 -15 -48 -40 -28 -16 14 -11 49 9 62 14 9 23
0 31 -34z m85 2 c0 -36 -3 -40 -24 -40 -27 0 -39 21 -30 56 4 17 13 24 30 24
21 0 24 -4 24 -40z m-45 -56 c18 -12 25 -25 25 -50 0 -41 -11 -49 -38 -26 -23
20 -38 65 -27 81 8 14 11 14 40 -5z m11695 -304 c0 -45 -17 -61 -37 -35 -16
23 -17 57 -2 72 21 21 39 3 39 -37z m-10386 -138 c8 -14 -19 -41 -34 -32 -11
7 -11 11 -1 24 15 17 27 20 35 8z m-274 -84 c0 -24 -22 -23 -44 4 -18 21 -18
22 0 35 16 12 20 11 31 -4 7 -9 13 -25 13 -35z m297 -278 c9 -37 24 -71 36
-80 24 -20 17 -73 -8 -64 -8 4 -15 11 -15 18 -1 11 -73 66 -88 66 -12 1 -46
34 -66 64 -19 30 -11 45 24 46 8 0 28 9 45 20 39 25 50 14 72 -70z m-833 -66
c16 -6 23 -44 8 -44 -12 0 -32 23 -32 37 0 15 2 15 24 7z m10514 -436 c2 -24
-3 -41 -14 -53 -17 -16 -18 -16 -31 1 -17 24 -16 45 3 72 21 31 38 23 42 -20z
m-8458 -88 c0 -13 -7 -20 -20 -20 -19 0 -19 1 -2 19 22 25 22 25 22 1z m7234
-6 c4 -10 1 -14 -6 -12 -15 5 -23 28 -10 28 5 0 13 -7 16 -16z m-7265 -256
c67 -69 105 -196 87 -292 -8 -43 -26 -48 -26 -8 0 51 -38 180 -75 253 -19 38
-35 72 -35 75 0 12 21 0 49 -28z m7331 23 c0 -6 -5 -13 -11 -17 -31 -19 -99
-217 -99 -287 0 -51 -17 -55 -31 -7 -15 50 1 150 33 214 31 60 108 130 108 97z
m-9963 -86 c5 -30 2 -41 -12 -51 -42 -31 -77 62 -39 101 14 14 19 14 31 3 7
-8 16 -32 20 -53z m1843 6 c-20 -29 -40 -41 -40 -24 0 10 53 64 58 58 2 -2 -6
-18 -18 -34z m-524 -57 c8 -30 -11 -77 -29 -72 -16 6 -21 66 -6 84 17 21 28
17 35 -12z m987 -72 c61 -27 111 -81 136 -147 21 -55 28 -125 13 -125 -4 0
-18 20 -30 44 -35 65 -117 152 -182 194 -104 66 -102 63 -38 58 31 -2 76 -13
101 -24z m8087 23 c0 -2 -19 -14 -42 -26 -83 -42 -165 -116 -216 -195 -56 -86
-53 -85 -48 -17 7 108 69 187 178 224 49 17 128 26 128 14z m-8405 -230 c46
-13 133 -61 159 -88 44 -46 80 -127 57 -127 -7 0 -24 12 -39 26 -71 68 -194
132 -300 154 -96 21 -96 20 -84 32 15 15 87 26 127 20 17 -2 53 -10 80 -17z
m8765 3 c20 -7 22 -11 10 -18 -8 -6 -28 -10 -43 -10 -85 0 -260 -86 -354 -174
-32 -29 -33 -29 -33 -8 0 13 9 40 20 61 59 117 272 196 400 149z m-9402 -59
c11 -28 11 -45 2 -78 -9 -36 -14 -41 -40 -41 -26 0 -31 5 -40 41 -13 48 -5 95
18 109 28 16 45 7 60 -31z m1578 -81 c11 -11 12 -64 7 -305 l-6 -291 -36 -6
c-20 -3 -86 -6 -148 -6 -108 0 -113 1 -145 28 -53 44 -84 61 -144 77 -69 18
-81 27 -94 74 -13 46 -13 52 2 49 15 -4 76 157 77 203 1 34 5 38 54 62 137 66
169 78 195 77 56 -4 73 1 104 30 29 27 39 30 77 26 23 -2 49 -10 57 -18z
m6681 -60 c-3 -8 -6 -5 -6 6 -1 11 2 17 5 13 3 -3 4 -12 1 -19z m-7575 -188
c73 -27 89 -47 27 -34 -24 5 -114 9 -201 9 -168 -1 -181 7 -67 39 69 20 166
14 241 -14z m8728 11 c20 -6 44 -17 54 -24 15 -11 -5 -13 -125 -9 -108 3 -158
0 -201 -11 -69 -18 -75 -7 -14 22 82 40 196 49 286 22z m-504 -70 c-12 -18
-24 -12 -19 9 3 11 0 20 -6 20 -6 0 -11 6 -11 12 0 7 9 3 21 -9 12 -11 18 -26
15 -32z m-7956 4 c0 -8 -4 -15 -10 -15 -5 0 -10 7 -10 15 0 8 5 15 10 15 6 0
10 -7 10 -15z m1074 -77 c12 -13 70 -61 129 -108 59 -46 107 -87 107 -91 0 -4
-7 -12 -15 -19 -13 -11 -29 1 -105 76 -90 89 -156 164 -145 164 3 0 16 -10 29
-22z m5806 2 c-6 -12 -58 -68 -116 -126 -104 -104 -106 -106 -126 -88 -18 17
-18 20 -3 29 9 5 69 53 133 107 64 53 118 97 120 97 1 1 -2 -8 -8 -19z m-256
-74 c-50 -46 -62 -53 -79 -43 -19 10 -19 11 -1 21 10 6 43 28 74 48 31 20 59
35 61 32 3 -2 -22 -29 -55 -58z m-5300 19 c30 -19 60 -35 66 -35 15 0 12 -16
-5 -30 -12 -10 -24 -3 -72 44 -32 30 -55 56 -51 56 4 0 32 -16 62 -35z m5993
-112 c-2 -16 -4 -5 -4 22 0 28 2 40 4 28 2 -13 2 -35 0 -50z m-7417 49 c0 -4
-30 -21 -67 -37 -46 -20 -88 -48 -128 -87 -32 -32 -61 -58 -62 -58 -2 0 5 17
16 38 22 44 89 108 129 124 57 23 112 33 112 20z m8256 -28 c53 -25 115 -89
134 -139 8 -21 -3 -14 -49 33 -53 54 -165 122 -201 122 -6 0 -8 4 -5 10 8 13
61 2 121 -26z m-6539 -35 c100 -48 159 -175 183 -391 22 -198 -30 -365 -136
-437 -41 -29 -129 -40 -164 -21 -22 12 -22 12 17 30 44 19 112 92 138 147 47
98 56 202 30 338 -47 245 -131 334 -254 271 -56 -29 -53 3 3 42 66 45 120 51
183 21z m4860 -6 c38 -20 81 -68 71 -79 -4 -3 -17 2 -31 11 -13 8 -47 18 -74
22 -46 5 -52 3 -88 -28 -20 -18 -46 -54 -57 -79 -54 -124 -74 -343 -42 -451 9
-30 32 -78 52 -108 35 -52 109 -111 141 -111 36 -1 -37 -29 -75 -30 -87 0
-169 71 -215 187 -20 51 -23 76 -23 198 -1 153 20 259 68 353 63 123 170 168
273 115z m-5317 -95 c0 -14 -30 -9 -49 10 -10 9 -31 35 -47 56 l-29 40 63 -49
c34 -26 62 -52 62 -57z m5724 80 c-51 -62 -80 -88 -96 -88 -29 0 -20 12 45 62
70 54 78 58 51 26z m-6777 -107 c-36 -51 -60 -114 -72 -184 -3 -21 -10 -35
-16 -32 -16 10 -10 108 10 150 20 43 98 132 107 122 3 -3 -10 -28 -29 -56z
m7752 2 c48 -54 76 -133 65 -187 -8 -43 -24 -48 -24 -8 0 46 -27 123 -64 185
-19 31 -31 57 -26 57 5 0 27 -21 49 -47z m-7421 -80 c-46 -93 -78 -197 -78
-257 0 -20 -4 -36 -10 -36 -6 0 -10 34 -10 83 0 87 20 150 62 195 20 21 44 31
36 15z m1527 -29 c353 -215 1106 -401 1843 -456 276 -20 672 20 1162 118 295
60 523 124 730 206 86 34 263 121 302 149 39 28 48 24 48 -21 0 -40 -2 -42
-75 -89 -41 -26 -118 -68 -170 -92 -94 -44 -128 -78 -64 -65 30 6 172 57 251
90 54 23 58 21 58 -29 0 -41 -3 -47 -37 -68 -40 -24 -228 -107 -244 -107 -5 0
-9 4 -9 9 0 22 -22 64 -28 55 -4 -6 -34 -21 -66 -34 -66 -26 -59 -39 10 -20
25 7 47 10 50 7 11 -11 -30 -58 -63 -72 -33 -14 -37 -35 -7 -35 22 0 16 -17
-8 -23 -13 -3 -70 -20 -128 -36 -173 -51 -352 -90 -665 -146 -119 -21 -124
-23 -90 -24 74 -2 321 31 520 71 299 59 725 172 732 195 2 6 -8 18 -24 27 -26
13 -26 15 -8 21 11 4 30 11 43 16 28 11 42 4 42 -19 0 -32 30 -133 55 -186 14
-29 25 -57 25 -62 0 -5 -42 -26 -93 -46 -327 -132 -401 -156 -413 -136 -3 4
-13 -1 -22 -13 -12 -14 -45 -27 -102 -40 -209 -50 -494 -100 -665 -118 -60 -7
-146 -16 -189 -22 -44 -5 -109 -9 -145 -10 -36 0 -84 -4 -106 -8 -35 -8 -31
-9 40 -11 344 -10 935 60 1235 146 105 30 290 95 396 139 59 25 112 45 118 45
11 0 41 -39 34 -44 -76 -54 -192 -115 -344 -182 -154 -67 -160 -69 -394 -145
-102 -33 -194 -64 -205 -69 -69 -30 151 16 340 70 168 49 428 148 594 226 197
93 141 51 -84 -63 -342 -174 -827 -322 -1218 -373 -320 -42 -353 -43 -947 -44
-586 0 -629 2 -930 40 -489 61 -998 225 -1392 446 -134 75 -113 75 37 0 148
-74 483 -199 660 -247 167 -45 210 -55 258 -60 57 -5 65 -9 -223 87 -196 64
-336 122 -510 208 -174 85 -205 114 -159 143 12 7 39 1 105 -27 49 -21 98 -41
109 -46 174 -72 478 -155 715 -195 221 -37 326 -50 295 -36 -18 9 -18 10 5 10
14 0 97 -6 185 -14 169 -15 548 -19 445 -5 -30 4 -127 13 -215 20 -158 11
-448 48 -555 71 -30 7 -68 12 -85 13 -23 1 -29 6 -27 19 3 18 -2 20 -62 17
-21 -1 -57 6 -79 16 -36 17 -40 17 -51 2 -8 -11 -17 -14 -27 -7 -8 5 -25 9
-37 9 -15 0 -26 7 -29 20 -3 12 -14 20 -25 20 -17 0 -18 -3 -8 -14 8 -11 -11
-8 -72 10 -206 63 -477 162 -512 187 -16 12 -16 16 9 64 15 28 37 88 49 134
15 59 26 83 37 82 7 -1 76 -23 151 -49 116 -41 134 -50 120 -60 -19 -14 -26
-11 83 -42 273 -79 731 -165 930 -175 50 -3 77 -3 60 -1 -16 2 -48 8 -70 14
-22 5 -67 13 -100 19 -278 50 -505 105 -717 173 -113 37 -128 44 -128 64 0 18
-14 27 -82 55 -46 18 -120 50 -165 70 l-83 38 0 51 c0 27 4 50 8 50 4 0 57
-20 117 -44 61 -24 136 -52 168 -62 51 -16 57 -21 52 -39 -4 -11 -9 -33 -12
-50 -5 -29 -5 -29 13 -13 17 15 24 15 74 2 81 -21 107 -13 40 12 -58 22 -80
54 -38 54 13 1 -42 32 -129 75 -84 40 -184 92 -223 115 -70 42 -70 42 -70 86
0 24 3 44 8 44 4 0 34 -16 67 -36z m5604 -47 c26 -52 39 -157 23 -197 -9 -24
-10 -23 -16 15 -19 117 -28 153 -51 203 l-25 54 22 -14 c13 -9 34 -36 47 -61z
m-6968 -94 c-6 -58 -11 -136 -11 -172 0 -45 -3 -62 -10 -55 -14 14 -14 219 1
281 26 114 34 92 20 -54z m6391 -98 c-10 -103 -26 -174 -37 -163 -6 5 12 271
22 348 l7 45 9 -60 c7 -40 6 -96 -1 -170z m363 141 c16 -84 19 -165 8 -242 -6
-42 -8 -45 -14 -24 -4 14 -8 68 -9 120 -1 52 -5 122 -9 155 -8 55 -5 83 5 72
3 -2 11 -39 19 -81z m-6380 -176 c7 -138 -5 -156 -24 -33 -13 82 -15 256 -3
267 9 9 17 -66 27 -234z m4860 -170 c-31 -33 -45 -36 -63 -18 -10 10 -5 16 25
30 59 26 70 22 38 -12z m2933 -263 c23 -27 24 -63 3 -88 l-21 -24 -20 24 c-24
28 -26 64 -4 85 19 19 28 20 42 3z m-2381 -63 c-3 -3 -12 -4 -19 -1 -8 3 -5 6
6 6 11 1 17 -2 13 -5z m3031 -316 c15 -15 15 -51 0 -66 -14 -14 -48 12 -48 38
0 16 18 40 30 40 3 0 11 -5 18 -12z m-2116 -299 c-2 -37 -10 -75 -19 -88 -16
-25 -16 -25 -24 -4 -4 12 -12 24 -18 28 -17 10 -14 85 4 91 8 4 15 12 15 19 0
14 19 25 35 21 6 -2 9 -30 7 -67z m2383 1 c8 -27 -3 -60 -20 -60 -21 0 -34 31
-24 58 10 27 35 29 44 2z m-3905 -142 c0 -41 -10 -78 -20 -78 -5 0 -6 9 -3 20
4 14 0 20 -10 20 -24 0 -31 19 -16 46 19 37 49 32 49 -8z m-497 -122 c-2 -21
4 -47 14 -62 16 -26 17 -26 25 -5 11 31 25 25 20 -9 -2 -16 -9 -30 -14 -30 -5
0 -6 -5 -2 -12 4 -7 3 -8 -5 -4 -6 4 -26 -2 -45 -13 -24 -15 -42 -19 -65 -15
-37 8 -38 13 -6 64 14 22 25 44 25 50 0 6 7 27 15 46 19 46 41 40 38 -10z
m185 2 c-2 -13 -7 -23 -13 -23 -5 0 -11 10 -13 23 -2 15 2 22 13 22 11 0 15
-7 13 -22z m160 -27 c10 -6 11 -13 1 -33 -9 -20 -21 -27 -55 -32 -25 -3 -61
-17 -82 -31 -55 -38 -73 -34 -70 15 3 44 9 48 32 25 20 -20 33 -19 41 5 5 15
12 18 36 13 24 -5 29 -2 29 15 0 28 39 42 68 23z m109 -13 c-3 -8 -6 -5 -6 6
-1 11 2 17 5 13 3 -3 4 -12 1 -19z m-3962 -25 c0 -14 7 -16 30 -6 16 5 307
-46 327 -58 7 -4 6 -25 -2 -63 -8 -42 -16 -56 -28 -55 -20 1 -87 12 -200 33
-46 9 -87 14 -91 11 -5 -2 -11 -27 -15 -55 -4 -28 -9 -56 -12 -64 -4 -10 10
-17 48 -26 29 -6 85 -19 123 -27 39 -9 74 -19 79 -24 4 -4 3 -22 -3 -41 -5
-18 -12 -45 -14 -60 -1 -15 -5 -29 -8 -32 -2 -2 -36 2 -74 11 -39 8 -95 20
-127 27 l-56 12 -7 -30 c-12 -56 -13 -85 -1 -95 10 -8 76 -23 229 -53 55 -11
57 -13 57 -43 0 -32 -18 -95 -27 -95 -2 0 -24 5 -49 11 -46 12 -55 23 -28 33
18 7 10 26 -12 26 -8 0 -14 -9 -14 -21 0 -19 -4 -20 -42 -14 -42 7 -166 35
-241 56 -33 9 -38 14 -34 32 3 12 9 43 12 70 7 47 21 68 34 50 5 -8 23 -9 81
-3 22 2 -16 17 -62 25 -21 3 -38 9 -38 13 2 58 68 353 83 367 7 7 8 7 4 0 -3
-6 -2 -17 4 -25 5 -9 9 -10 9 -4 0 7 11 15 24 18 27 7 42 52 20 60 -8 3 -11
12 -8 21 3 8 1 15 -5 15 -6 0 -11 -4 -11 -10 0 -5 -7 -10 -15 -10 -8 0 -15 9
-15 21 0 17 5 20 38 17 21 -2 37 -8 37 -15z m7740 6 c7 -11 -22 -49 -37 -49
-10 0 -11 44 -1 53 10 10 31 8 38 -4z m-3213 -49 c-21 -19 -21 -21 -4 -39 19
-20 30 -18 41 11 5 13 14 -20 30 -104 12 -68 26 -143 31 -168 5 -25 8 -52 8
-60 -1 -8 6 -49 15 -90 25 -120 29 -150 17 -150 -5 0 -10 6 -11 13 0 9 -2 10
-6 0 -2 -7 -12 -13 -21 -13 -14 0 -15 2 -2 10 8 5 12 12 9 15 -11 10 -37 -6
-42 -26 -7 -26 -27 -24 -27 4 0 18 -2 19 -10 7 -7 -11 -13 -12 -23 -5 -47 34
-120 97 -148 131 -19 21 -49 51 -66 67 -18 16 -33 35 -33 41 0 14 -38 52 -45
45 -2 -3 2 -29 10 -59 8 -30 15 -76 15 -102 0 -25 7 -82 15 -125 8 -43 15 -79
15 -79 0 -1 -13 -4 -30 -8 -16 -3 -43 -9 -59 -12 -16 -3 -32 -1 -35 5 -13 21
-47 191 -66 331 -10 80 -25 178 -31 218 -14 82 -11 90 44 99 60 9 83 -3 158
-90 39 -45 105 -118 146 -162 l75 -80 -6 76 c-3 42 -10 88 -15 103 -6 14 -12
56 -13 93 -2 45 -8 72 -18 79 -25 21 6 44 58 44 l46 0 -22 -20z m-609 -97 c19
-129 69 -472 81 -548 7 -49 12 -93 10 -97 -7 -11 -115 -21 -124 -12 -10 10
-18 60 -51 299 -11 83 -26 184 -35 225 -8 41 -15 93 -17 115 -2 38 -1 40 33
46 19 4 49 7 66 8 29 1 32 -2 37 -36z m-3311 11 c23 -7 42 -39 78 -135 17 -46
42 -109 54 -139 13 -30 32 -76 42 -102 11 -27 22 -48 26 -48 11 0 69 271 72
335 1 29 2 30 46 27 59 -4 73 -18 32 -33 -18 -6 -32 -15 -32 -21 0 -5 5 -6 10
-3 6 3 14 -4 18 -15 8 -21 10 -21 24 -6 23 22 29 20 23 -6 -2 -13 -6 -39 -9
-58 -13 -103 -19 -136 -26 -150 -5 -8 -20 -89 -36 -180 -15 -91 -29 -167 -31
-169 -2 -3 -10 5 -18 16 -14 20 -55 28 -55 11 0 -4 -10 -8 -21 -8 -19 0 -20 2
-8 16 12 15 11 16 -9 10 -19 -6 -25 -2 -36 26 -8 18 -23 45 -35 59 -11 14 -30
50 -41 80 -12 30 -29 72 -39 94 -10 22 -21 57 -25 78 -4 20 -11 37 -16 37 -10
0 -12 -8 -29 -119 -6 -41 -16 -80 -22 -87 -5 -7 -13 -44 -16 -83 l-6 -72 -51
5 c-28 2 -57 5 -65 5 -11 1 -12 15 -7 69 11 119 23 195 49 302 14 58 28 128
32 155 3 28 11 67 17 88 11 38 12 38 52 32 23 -4 48 -9 58 -11z m2353 -59 l30
-20 -25 -3 c-44 -5 -130 -34 -130 -43 0 -17 32 -23 41 -8 7 11 9 11 9 -3 0
-12 11 -19 35 -24 29 -5 37 -12 42 -35 5 -25 10 -29 39 -29 34 0 49 19 17 21
-14 0 -12 3 5 10 24 9 23 18 -7 53 -15 17 -15 18 4 15 11 -3 29 -21 40 -42 19
-35 19 -39 3 -48 -10 -5 -15 -16 -12 -24 5 -12 -4 -15 -47 -15 -50 0 -57 3
-93 40 -21 22 -46 41 -55 41 -40 3 -58 -4 -88 -36 -31 -32 -39 -58 -34 -107 1
-10 0 -18 -2 -18 -13 0 -97 42 -97 48 1 4 5 26 9 49 6 32 5 46 -5 54 -32 26
-7 64 81 123 37 25 47 27 125 24 66 -2 93 -8 115 -23z m529 -10 c-4 -15 -2
-25 5 -25 6 0 11 7 11 15 0 8 4 15 9 15 17 0 23 -21 10 -36 -6 -8 -10 -16 -8
-18 11 -9 69 -14 74 -6 3 6 -1 10 -9 10 -18 0 -30 16 -17 24 15 10 55 -30 79
-77 50 -101 73 -377 38 -447 -25 -48 -54 -79 -97 -100 -44 -23 -123 -38 -172
-32 -42 5 -45 23 -6 33 23 6 23 7 4 14 -11 5 -23 13 -27 19 -5 7 -8 6 -8 -3 0
-7 -6 -11 -14 -8 -10 4 -12 0 -9 -14 8 -28 -17 -24 -60 12 -47 39 -67 76 -71
137 -2 26 -10 79 -16 117 -7 39 -12 83 -11 98 1 15 -3 36 -9 47 -15 28 4 103
40 152 50 69 103 91 228 96 41 2 42 1 36 -23z m-2059 -15 c20 -8 25 -15 20
-30 -4 -11 -2 -20 4 -20 6 0 11 7 11 16 0 13 3 14 15 4 13 -11 13 -14 0 -27
-20 -19 -20 -19 17 -37 33 -17 56 -12 25 5 -17 10 -15 29 4 29 16 0 48 -61 59
-114 13 -60 -3 -273 -26 -356 -35 -124 -177 -190 -316 -148 -40 12 -47 33 -10
33 30 1 37 12 13 20 -12 3 -22 14 -22 23 -1 15 -2 15 -6 0 -5 -21 -19 -23 -27
-5 -4 6 -4 2 -2 -11 3 -14 -1 -22 -9 -22 -15 0 -78 74 -89 103 -8 25 12 381
24 412 15 39 90 114 124 124 43 13 159 13 191 1z m619 -28 c3 -5 18 -13 32
-16 39 -10 84 -47 84 -70 0 -32 -42 -86 -67 -86 -12 0 -40 9 -61 20 -22 11
-63 23 -92 27 -63 7 -80 -8 -80 -69 0 -36 -3 -40 -37 -55 -21 -9 -55 -17 -75
-19 l-38 -3 0 57 c1 111 33 176 103 206 34 15 223 21 231 8z m-1884 -12 c0 -5
-2 -10 -4 -10 -3 0 -8 5 -11 10 -3 6 -1 10 4 10 6 0 11 -4 11 -10z m630 -10
c0 -5 -4 -10 -9 -10 -6 0 -13 5 -16 10 -3 6 1 10 9 10 9 0 16 -4 16 -10z
m1830 -89 c0 -5 -7 -14 -15 -21 -13 -10 -15 -9 -15 9 0 12 6 21 15 21 8 0 15
-4 15 -9z m520 -77 c0 -17 -22 -14 -28 4 -2 7 3 12 12 12 9 0 16 -7 16 -16z
m-488 -19 c50 -20 65 -51 73 -140 9 -106 26 -146 76 -174 51 -29 78 -23 130
31 37 38 46 42 100 46 l59 4 0 -31 c0 -64 -55 -148 -118 -180 -50 -26 -139
-32 -200 -15 -80 23 -92 33 -92 72 0 29 -3 32 -20 27 -17 -5 -24 2 -40 41 -11
26 -23 76 -25 113 -3 36 -8 80 -11 97 -4 20 0 43 10 62 9 17 13 38 10 46 -8
20 4 20 48 1z m-744 -78 c2 -10 -3 -17 -12 -17 -9 0 -16 -6 -16 -12 0 -7 -7
-4 -16 7 -8 11 -17 19 -19 18 -3 -2 -5 0 -6 4 -1 10 32 22 51 20 8 -1 16 -10
18 -20z m143 -14 c65 -32 96 -76 93 -133 -7 -140 -44 -196 -142 -223 -56 -16
-110 -16 -207 -2 -70 10 -165 73 -165 109 0 15 65 76 81 76 11 0 45 -14 77
-31 49 -26 65 -30 115 -27 69 5 101 30 99 78 -1 30 -44 85 -56 72 -3 -3 -6 7
-6 21 0 15 4 27 9 27 12 0 21 39 10 46 -5 3 -9 10 -9 15 0 13 45 1 101 -28z
m-241 -23 c0 -25 -4 -30 -25 -30 -30 0 -35 33 -7 49 27 16 32 13 32 -19z m65
-50 c3 -5 -1 -10 -10 -10 -9 0 -13 5 -10 10 3 6 8 10 10 10 2 0 7 -4 10 -10z
m-1005 -206 c0 -2 -7 -4 -15 -4 -8 0 -15 4 -15 10 0 5 7 7 15 4 8 -4 15 -8 15
-10z m1490 -94 c16 -30 2 -72 -24 -68 -23 3 -31 27 -22 64 8 29 31 31 46 4z
m640 -114 c0 -27 9 -43 39 -74 27 -27 42 -52 46 -78 5 -33 4 -36 -6 -19 -27
46 -94 105 -120 105 -49 0 -49 71 -1 89 41 14 42 14 42 -23z m-1040 -165 c0
-21 -26 -36 -36 -20 -9 15 3 39 21 39 8 0 15 -9 15 -19z"/>
<path d="M4000 10686 c-92 -26 -148 -64 -196 -132 -67 -93 -66 -194 1 -253 50
-43 66 -40 105 22 32 50 90 123 90 113 0 -2 -19 -39 -41 -81 -48 -89 -45 -95
37 -84 109 15 234 101 269 187 26 61 16 150 -22 190 -38 40 -167 60 -243 38z
m142 -35 c89 -34 68 -186 -36 -266 -39 -30 -116 -46 -116 -25 0 22 23 94 35
110 20 26 48 100 41 107 -3 4 -13 -2 -20 -13 -115 -162 -143 -198 -153 -202
-7 -2 -26 10 -43 26 -25 25 -30 38 -30 78 0 45 3 51 59 105 46 45 73 62 122
78 64 21 91 21 141 2z"/>
<path d="M8787 10689 c-93 -22 -131 -67 -131 -154 0 -80 46 -149 143 -214 62
-41 119 -61 175 -61 45 0 45 7 2 101 -18 41 -41 94 -50 119 -17 47 -61 108
-71 99 -3 -3 15 -52 40 -109 56 -128 56 -134 8 -125 -79 14 -140 71 -168 155
-45 134 66 201 218 131 106 -50 166 -126 152 -197 -10 -55 -84 -98 -99 -58 -4
9 -9 14 -12 11 -4 -3 3 -19 15 -35 11 -16 25 -41 31 -56 12 -32 32 -33 77 -4
62 37 81 133 44 213 -44 95 -131 159 -249 184 -60 12 -72 13 -125 0z"/>
<path d="M6275 10534 c-199 -17 -430 -73 -569 -139 -37 -18 -50 -41 -18 -31
64 20 219 46 342 56 274 23 1000 -9 1150 -50 19 -6 48 -10 63 -10 111 0 -215
113 -433 151 -113 19 -419 32 -535 23z"/>
<path d="M6080 9699 c-197 -6 -275 -12 -535 -39 -180 -20 -523 -88 -730 -145
-106 -30 -293 -94 -427 -146 -125 -49 -433 -200 -510 -250 -20 -13 -71 -46
-113 -74 -42 -27 -84 -54 -92 -60 -21 -13 -26 -17 -148 -113 -320 -251 -554
-684 -650 -1205 -8 -43 -15 -93 -16 -110 -1 -18 -8 -93 -15 -167 -25 -251 -13
-679 26 -940 49 -326 66 -416 116 -615 132 -527 354 -976 668 -1350 83 -98
255 -272 341 -343 44 -37 82 -69 85 -73 11 -14 232 -169 315 -221 97 -61 300
-167 405 -212 36 -16 83 -37 105 -47 68 -30 333 -118 451 -149 615 -164 1329
-186 1959 -61 266 53 563 143 759 230 23 10 79 35 126 56 90 41 191 93 252
132 21 12 40 23 43 23 5 0 131 77 150 92 6 5 48 36 95 69 368 262 701 650 914
1064 17 33 33 62 36 65 8 7 106 234 136 315 199 538 318 1366 274 1905 -50
609 -221 1065 -520 1384 -70 74 -124 126 -175 166 -22 17 -47 37 -56 44 -25
21 -167 118 -204 141 -205 123 -277 161 -445 238 -369 169 -808 290 -1275 351
-315 42 -839 59 -1345 45z m987 -260 c49 -18 83 -59 83 -98 0 -37 -14 -70 -25
-60 -3 4 -1 18 5 33 25 65 -77 135 -178 122 -32 -4 -41 -3 -27 3 28 13 108 13
142 0z m-1119 -6 c-10 -2 -28 -2 -40 0 -13 2 -5 4 17 4 22 1 32 -1 23 -4z
m535 0 c-7 -2 -21 -2 -30 0 -10 3 -4 5 12 5 17 0 24 -2 18 -5z m-688 -13 c4
-6 -12 -9 -42 -9 -47 2 -47 2 -13 9 19 4 38 8 42 9 4 0 10 -3 13 -9z m849 -8
c2 -4 -11 -6 -30 -4 -19 2 -34 6 -34 8 0 8 59 4 64 -4z m243 -6 c-9 -7 -22
-27 -28 -44 -12 -36 -2 -62 40 -98 14 -13 21 -24 15 -24 -27 0 -84 70 -84 104
0 18 48 76 63 76 7 0 4 -7 -6 -14z m-207 -41 c0 -5 -5 -3 -10 5 -5 8 -10 20
-10 25 0 6 5 3 10 -5 5 -8 10 -19 10 -25z m-1155 15 c-3 -5 -13 -10 -21 -10
-8 0 -14 5 -14 10 0 6 9 10 21 10 11 0 17 -4 14 -10z m-100 -20 c-27 -12 -35
-12 -35 0 0 6 12 10 28 9 24 0 25 -1 7 -9z m-72 -17 c-7 -2 -21 -2 -30 0 -10
3 -4 5 12 5 17 0 24 -2 18 -5z m1327 -52 c-13 -48 -37 -64 -88 -58 l-37 4 41
1 c49 2 70 22 80 77 4 22 9 35 11 28 2 -6 -1 -30 -7 -52z m-1400 39 c0 -5 -12
-10 -27 -10 -40 0 -116 -39 -104 -54 6 -7 6 -17 1 -26 -18 -29 -11 -51 23 -65
25 -11 28 -15 15 -20 -18 -7 -57 10 -75 34 -24 31 -10 94 26 116 17 11 94 32
124 34 9 0 17 -3 17 -9z m1817 -77 c-9 -9 -20 -13 -24 -9 -4 4 -1 11 7 16 25
16 35 11 17 -7z m-1074 0 c-18 -2 -48 -2 -65 0 -18 2 -4 4 32 4 36 0 50 -2 33
-4z m375 0 c-21 -2 -57 -2 -80 0 -24 2 -7 4 37 4 44 0 63 -2 43 -4z m115 -10
c-7 -2 -19 -2 -25 0 -7 3 -2 5 12 5 14 0 19 -2 13 -5z m-765 -8 c-7 -8 -87 -9
-95 -2 -3 4 18 7 47 7 29 0 51 -2 48 -5z m1275 -2 c-13 -2 -35 -2 -50 0 -16 2
-5 4 22 4 28 0 40 -2 28 -4z m-2128 -36 c21 -30 19 -71 -5 -92 -20 -18 -129
-62 -180 -72 l-25 -6 22 24 c12 13 23 35 25 49 2 19 10 26 31 28 19 2 27 9 27
23 0 20 -19 25 -48 10 -29 -14 -88 -33 -142 -46 -26 -6 17 17 101 54 143 63
167 66 194 28z m618 16 c-7 -2 -19 -2 -25 0 -7 3 -2 5 12 5 14 0 19 -2 13 -5z
m-93 -13 c-14 -4 -34 -8 -45 -8 -16 0 -15 2 5 8 14 4 34 8 45 8 16 0 15 -2 -5
-8z m-110 -20 c-20 -13 -83 -13 -75 0 3 6 25 10 48 10 31 0 38 -3 27 -10z
m-770 -95 c0 -8 -92 -47 -97 -41 -3 3 12 14 33 24 39 20 64 26 64 17z m130
-65 c0 -5 -3 -10 -7 -10 -5 0 -19 -3 -33 -6 l-25 -5 25 15 c30 18 40 20 40 6z
m-75 -30 c-3 -5 -14 -10 -23 -9 -14 0 -13 2 3 9 27 11 27 11 20 0z m-275 -10
c0 -5 -5 -10 -11 -10 -5 0 -7 5 -4 10 3 6 8 10 11 10 2 0 4 -4 4 -10z m4712
-145 c54 -42 98 -81 98 -87 0 -5 -16 4 -36 22 -20 17 -42 29 -48 27 -7 -3 -51
31 -97 75 -98 93 -64 78 83 -37z m-4682 45 c-8 -5 -19 -10 -25 -10 -5 0 -3 5
5 10 8 5 20 10 25 10 6 0 3 -5 -5 -10z m1268 -20 c113 -24 255 -73 408 -140
77 -35 250 -88 333 -104 101 -19 258 -20 366 -2 108 18 199 46 390 121 197 77
295 109 405 131 105 21 284 24 365 5 87 -20 251 -101 341 -170 83 -62 212
-187 203 -196 -3 -2 -38 16 -79 41 -95 59 -202 108 -293 134 -76 21 -157 27
-157 11 0 -5 28 -20 63 -34 81 -33 197 -88 197 -95 0 -2 -19 -1 -42 3 -345 57
-601 46 -799 -35 -40 -16 -74 -28 -76 -26 -3 3 68 73 132 130 22 20 34 36 27
36 -34 0 -235 -118 -510 -302 -168 -113 -319 -198 -350 -198 -36 0 -180 80
-352 193 -96 64 -179 120 -185 125 -54 44 -321 189 -331 179 -3 -3 9 -18 27
-34 48 -40 156 -146 144 -140 -166 80 -295 107 -510 107 -78 0 -184 -6 -236
-14 -52 -8 -114 -18 -139 -22 -29 -4 -42 -3 -35 3 9 10 190 94 228 106 30 11
18 27 -21 27 -83 0 -274 -73 -421 -161 -45 -27 -52 -29 -42 -11 15 29 123 124
207 182 238 165 461 211 742 150z m-1328 -10 c0 -5 -5 -10 -11 -10 -5 0 -7 5
-4 10 3 6 8 10 11 10 2 0 4 -4 4 -10z m-250 -30 c0 -6 -8 -14 -17 -17 -10 -4
-30 -16 -45 -27 -15 -11 -30 -17 -32 -15 -4 4 80 66 92 69 1 0 2 -5 2 -10z
m160 -20 c-8 -5 -19 -10 -25 -10 -5 0 -3 5 5 10 8 5 20 10 25 10 6 0 3 -5 -5
-10z m-50 -24 c0 -2 -16 -13 -35 -25 -19 -11 -35 -17 -35 -12 0 4 15 15 33 24
37 18 37 18 37 13z m4937 -23 c49 -49 116 -123 110 -123 -7 0 -28 21 -102 98
-51 54 -57 73 -8 25z m209 -155 c125 -128 249 -277 298 -355 4 -8 2 -13 -4
-13 -6 0 -15 11 -20 25 -5 14 -13 25 -18 25 -5 0 -18 18 -31 40 -12 22 -28 40
-34 40 -7 0 -19 15 -26 32 -13 29 -62 84 -195 219 -22 22 -44 43 -50 47 -6 4
-27 25 -46 46 -71 80 20 3 126 -106z m-5261 107 c-39 -33 -59 -32 -21 0 16 14
34 25 40 25 6 -1 -2 -12 -19 -25z m-298 -112 c-12 -14 -29 -34 -38 -43 -9 -10
-18 -31 -21 -47 -4 -27 -2 -29 21 -25 15 2 31 9 36 16 6 6 19 18 30 26 11 8
-32 -37 -96 -100 -64 -63 -133 -135 -153 -159 -20 -25 -39 -41 -43 -38 -3 4 5
20 19 35 22 23 40 53 68 112 4 8 16 17 26 19 22 4 44 20 44 32 0 5 -9 13 -20
19 -16 9 -24 6 -42 -15 -12 -14 -27 -25 -33 -25 -6 0 -29 -28 -52 -63 -22 -34
-50 -71 -62 -81 -25 -22 -28 -64 -6 -73 9 -3 25 3 35 12 11 10 20 15 20 10 0
-14 -102 -146 -108 -140 -4 3 -1 10 6 14 15 9 33 67 26 86 -4 10 -11 11 -27 4
-28 -14 -127 -212 -134 -271 -3 -23 -12 -47 -19 -51 -11 -6 -35 -68 -40 -102
-2 -21 -16 -71 -24 -90 -5 -11 -13 -49 -19 -84 -6 -36 -15 -69 -21 -75 -32
-32 16 189 82 374 52 145 175 356 291 494 73 88 248 256 267 256 5 0 0 -12
-13 -27z m153 17 c0 -5 -20 -23 -45 -40 -25 -17 -45 -26 -45 -20 0 5 3 10 8
10 4 0 22 14 41 30 37 33 41 35 41 20z m5343 -11 c26 -30 15 -34 -13 -4 -13
14 -19 25 -14 25 5 0 18 -9 27 -21z m47 -49 c0 -10 45 -64 93 -111 15 -15 27
-33 27 -41 -1 -10 -4 -9 -13 3 -7 9 -34 42 -62 73 -58 67 -70 86 -55 86 5 0
10 -4 10 -10z m270 -332 c0 -19 -18 -5 -53 42 -50 67 -47 75 8 16 25 -27 45
-53 45 -58z m80 -35 c0 -20 -16 -8 -23 17 -4 17 -3 19 9 9 8 -6 14 -18 14 -26z
m-4135 -3 c116 -5 238 -14 273 -20 104 -17 187 -56 248 -116 65 -63 98 -131
115 -237 11 -75 8 -213 -6 -250 -7 -16 -55 -17 -869 -15 l-861 3 2 197 c2 223
5 234 76 292 102 84 292 131 587 145 213 11 207 11 435 1z m2719 -16 c126 -16
262 -51 328 -85 57 -29 125 -95 137 -132 12 -40 26 -357 16 -386 l-6 -21 -852
0 c-469 0 -858 4 -866 9 -32 20 -32 214 0 336 31 117 122 206 261 254 139 48
688 62 982 25z m1558 -221 c17 -35 28 -67 26 -73 -3 -11 -195 248 -204 277 -4
12 3 9 20 -10 14 -15 26 -35 26 -43 0 -8 3 -14 8 -14 4 0 18 -17 32 -37 35
-53 53 -73 64 -73 5 0 2 8 -7 18 -10 10 -17 23 -17 28 0 5 -18 36 -40 69 -22
33 -40 67 -40 75 0 19 93 -135 132 -217z m-6006 182 c28 -8 77 -32 110 -53 63
-42 194 -168 194 -187 0 -15 -146 -155 -161 -155 -6 0 -30 20 -55 44 -109 109
-224 111 -279 5 -21 -39 -48 -186 -40 -217 6 -25 8 -24 37 31 44 82 94 137
125 137 48 0 123 -78 123 -126 0 -11 -33 -45 -80 -84 -124 -102 -114 -120 27
-45 47 25 83 41 81 36 -1 -6 -39 -47 -84 -93 -126 -130 -245 -298 -211 -298 9
0 17 6 20 13 2 6 8 8 13 4 4 -4 0 -54 -10 -110 -10 -56 -22 -122 -26 -146 -15
-89 30 -229 110 -346 17 -25 29 -49 26 -53 -3 -5 -30 -14 -60 -22 -99 -23 -99
-37 0 -59 50 -11 54 -15 64 -49 18 -67 14 -76 -40 -99 -74 -31 -65 -45 23 -37
72 6 72 6 100 -26 19 -21 32 -29 39 -22 5 5 27 63 48 128 40 121 53 136 25 30
-15 -58 -15 -73 2 -63 5 3 40 80 78 171 38 90 72 163 76 161 3 -3 9 -42 13
-87 4 -46 11 -123 16 -173 40 -376 42 -406 27 -418 -9 -7 -27 -41 -42 -77 -71
-180 -193 -266 -342 -244 -181 27 -286 167 -344 463 -23 117 -39 444 -21 426
5 -5 21 -39 35 -75 14 -36 33 -79 42 -95 l16 -30 -6 35 c-4 19 -13 62 -21 95
-22 96 -34 220 -34 355 0 142 13 203 63 314 22 45 36 95 40 136 4 36 10 76 13
90 6 25 6 25 -10 5 -16 -19 -17 -5 -11 236 7 276 18 359 61 446 35 73 107 131
175 142 3 1 28 -6 55 -14z m5686 -16 c51 -26 104 -99 129 -178 16 -52 22 -110
29 -276 12 -273 12 -355 1 -355 -5 0 -12 6 -14 13 -2 6 -2 -1 0 -18 2 -16 7
-55 10 -85 3 -30 16 -76 29 -102 13 -26 35 -81 49 -122 22 -66 25 -91 25 -215
0 -143 -16 -286 -45 -400 -26 -98 -12 -94 29 10 21 51 42 99 48 104 16 15 3
-291 -17 -400 -17 -98 -34 -157 -70 -250 -13 -33 -31 -105 -40 -160 -57 -351
-160 -609 -347 -872 -81 -113 -261 -312 -339 -374 -70 -55 -41 -14 69 98 149
153 154 160 141 186 -11 20 -14 18 -61 -33 -27 -30 -57 -67 -66 -82 -9 -15
-24 -31 -34 -34 -10 -3 -18 -9 -18 -14 0 -5 -24 -25 -53 -43 -29 -19 -66 -47
-82 -62 -38 -35 -74 -59 -80 -53 -3 2 23 28 58 56 294 242 507 528 652 877 20
50 41 99 45 110 20 45 70 217 70 237 0 21 0 21 -27 -4 -83 -75 -232 -95 -336
-44 -86 42 -156 137 -187 254 -6 25 -17 42 -25 42 -18 0 -19 21 -6 122 5 40
20 180 32 311 13 130 27 236 32 234 4 -1 39 -76 77 -166 38 -90 72 -166 76
-170 6 -5 3 29 -11 119 -3 19 10 -10 29 -65 18 -56 39 -111 45 -124 l13 -23
33 32 c33 32 36 33 99 27 38 -4 68 -2 71 3 5 9 -32 30 -77 44 -20 6 -23 34 -8
88 10 34 14 38 64 49 99 22 99 36 0 59 -30 8 -57 17 -60 22 -3 5 10 32 29 61
72 108 107 205 107 291 0 28 -11 109 -25 180 -14 71 -23 131 -20 134 3 3 15
-5 26 -17 12 -12 23 -20 26 -18 15 16 -114 192 -226 310 l-96 100 103 -53 c57
-29 106 -49 110 -45 7 7 -43 56 -132 132 l-49 41 26 45 c33 56 71 87 108 87
33 0 87 -58 125 -137 15 -29 31 -50 36 -47 13 8 1 104 -23 185 -44 154 -158
171 -295 44 -26 -25 -53 -45 -59 -45 -13 0 -155 142 -155 155 0 18 153 162
210 198 93 58 146 64 222 26z m-6119 -116 c-8 -21 -19 -42 -23 -48 -27 -34
-109 -269 -136 -390 -9 -44 -22 -84 -27 -90 -12 -13 2 116 14 131 5 6 7 13 4
16 -8 8 16 111 30 128 7 8 20 38 30 65 10 28 24 57 32 66 7 8 13 21 13 27 0 6
14 34 30 62 17 28 30 55 30 60 0 6 4 10 9 10 6 0 3 -17 -6 -37z m-227 -595
c-16 -106 -17 -225 -3 -355 17 -154 22 -281 11 -270 -11 11 -33 276 -33 413
-1 156 9 278 22 265 5 -5 6 -29 3 -53z m32 -63 c-21 -187 -27 -205 -22 -68 4
131 10 172 24 156 4 -4 3 -44 -2 -88z m3372 -45 c0 -48 15 -53 25 -7 l7 32 11
-32 c18 -49 27 -50 27 -5 0 22 4 44 10 47 17 11 49 -14 76 -61 32 -54 117
-315 106 -325 -4 -4 -56 -22 -115 -40 l-108 -32 -116 29 c-64 16 -122 33 -130
39 -12 9 -9 21 15 75 16 36 42 101 57 145 35 103 49 129 81 154 41 32 54 27
54 -19z m-660 -398 c0 -13 -132 -133 -186 -169 -65 -43 -182 -88 -284 -109
-63 -12 -118 -15 -238 -11 -137 4 -167 8 -237 31 -97 33 -152 63 -220 119 -46
38 -125 126 -125 141 0 3 290 6 645 6 355 0 645 -4 645 -8z m2670 1 c0 -18
-41 -68 -100 -124 -69 -65 -164 -117 -270 -146 -95 -26 -396 -26 -495 1 -86
23 -182 65 -249 110 -57 38 -166 140 -166 156 0 7 211 10 640 10 352 0 640 -3
640 -7z m-2230 -65 c63 -31 174 -132 215 -195 15 -24 33 -43 39 -42 6 0 31 27
55 61 56 77 160 162 228 188 69 26 154 26 211 0 105 -48 172 -120 187 -200 7
-39 -15 -116 -43 -153 -69 -89 -213 -191 -328 -231 -94 -33 -98 -51 -8 -43
101 8 265 71 367 141 47 32 51 32 96 -2 52 -40 98 -59 219 -90 103 -26 116
-27 367 -27 218 0 272 3 335 18 97 24 195 64 231 94 16 14 34 23 40 21 6 -2
48 -71 93 -153 118 -214 160 -283 253 -406 46 -60 79 -109 74 -109 -5 0 -28 9
-52 20 -73 33 -95 20 -54 -30 51 -61 117 -240 130 -350 l7 -55 -25 50 c-30 60
-72 113 -83 103 -4 -4 3 -45 15 -90 23 -92 39 -238 25 -238 -5 0 -22 26 -37
59 -46 96 -162 211 -369 365 -47 35 -51 16 -7 -34 77 -89 196 -285 237 -395
77 -205 81 -476 8 -656 -22 -55 -20 -79 4 -64 6 3 10 2 10 -3 0 -5 -8 -13 -17
-16 -10 -3 -27 -12 -38 -19 -42 -26 -110 -72 -115 -77 -12 -13 -302 -151 -380
-180 -47 -18 -98 -38 -115 -45 -27 -12 -247 -74 -385 -110 -30 -7 -118 -23
-195 -35 -77 -12 -162 -26 -188 -31 -26 -5 -62 -9 -79 -9 -38 0 -78 -34 -78
-67 0 -13 11 -35 25 -49 27 -27 14 -28 225 7 63 11 157 31 208 44 50 14 135
36 187 50 88 24 302 96 370 125 17 7 46 19 65 28 68 28 293 144 315 162 6 5
23 13 38 19 l27 10 -37 -52 c-91 -131 -146 -196 -208 -247 -179 -148 -368
-245 -655 -333 -381 -118 -763 -170 -1260 -170 -300 0 -417 8 -632 44 -421 71
-878 270 -1105 482 -94 87 -226 275 -283 402 -53 119 -100 297 -100 382 0 17
-5 35 -10 38 -6 4 -8 11 -5 16 5 7 58 -22 75 -42 10 -12 149 -82 238 -120 156
-67 275 -97 547 -139 144 -22 392 -26 596 -11 207 16 237 31 99 50 -41 5 -133
20 -205 31 -71 12 -155 25 -185 30 -227 32 -482 85 -665 137 -103 30 -207 53
-236 53 -16 0 -29 4 -29 9 0 9 -116 51 -142 51 -9 0 -21 7 -28 15 -7 8 -23 15
-35 15 -30 0 -55 10 -55 21 0 4 7 6 16 2 21 -8 31 10 40 72 10 74 47 190 87
276 32 67 129 226 146 239 21 16 82 101 79 110 -7 21 -234 -164 -322 -261 -31
-35 -71 -92 -88 -126 -17 -35 -33 -63 -36 -63 -12 0 8 172 28 248 12 46 20 86
16 89 -10 11 -42 -27 -75 -87 -25 -45 -31 -50 -31 -29 0 74 67 261 136 376 10
17 15 35 12 39 -4 4 -33 -3 -64 -15 -31 -12 -59 -19 -62 -17 -2 3 16 28 40 55
44 49 154 207 199 286 69 122 159 288 164 305 9 27 18 25 68 -11 47 -34 86
-53 167 -79 127 -40 170 -45 415 -45 218 0 248 2 325 23 108 29 206 74 248
115 l33 32 32 -19 c82 -50 179 -97 247 -121 79 -28 210 -45 210 -28 0 5 -37
24 -82 42 -142 55 -271 153 -334 252 -21 34 -27 56 -28 99 0 92 52 162 164
221 49 26 64 29 130 27 58 -2 88 -9 130 -30z m-2232 -1870 c-8 -6 -5 -7 10 -3
21 6 23 4 18 -13 -5 -15 2 -27 26 -47 18 -15 28 -25 21 -23 -17 4 -173 148
-173 159 0 5 25 -7 55 -28 41 -26 52 -39 43 -45z m92 -38 c0 -5 -2 -10 -4 -10
-3 0 -8 5 -11 10 -3 6 -1 10 4 10 6 0 11 -4 11 -10z m54 -25 c25 -19 9 -19
-24 0 -14 8 -19 14 -10 14 8 0 24 -6 34 -14z m51 -25 c3 -5 2 -10 -4 -10 -5 0
-13 5 -16 10 -3 6 -2 10 4 10 5 0 13 -4 16 -10z m-80 -20 c3 -5 2 -10 -4 -10
-5 0 -13 5 -16 10 -3 6 -2 10 4 10 5 0 13 -4 16 -10z m70 -50 c3 -5 2 -10 -4
-10 -5 0 -13 5 -16 10 -3 6 -2 10 4 10 5 0 13 -4 16 -10z m40 -30 c3 -5 2 -10
-4 -10 -5 0 -13 5 -16 10 -3 6 -2 10 4 10 5 0 13 -4 16 -10z m4556 -411 c-24
-21 -47 -37 -50 -33 -7 7 69 74 84 73 6 0 -10 -18 -34 -40z"/>
<path d="M4840 9186 c0 -14 40 -49 47 -42 2 2 1 15 -3 30 -7 28 -44 38 -44 12z"/>
<path d="M9468 5301 c-20 -42 -39 -83 -42 -91 -14 -36 -129 -245 -146 -268
-11 -14 -20 -37 -20 -53 0 -15 -11 -41 -25 -57 -17 -20 -22 -33 -15 -37 6 -4
12 -5 14 -4 1 2 13 20 27 39 14 19 42 58 61 85 67 96 188 373 188 430 0 8 5
15 10 15 6 0 10 4 10 8 0 5 -6 9 -13 9 -7 0 -29 -34 -49 -76z"/>
<path d="M9175 4750 c-3 -5 1 -10 9 -10 9 0 16 5 16 10 0 6 -4 10 -9 10 -6 0
-13 -4 -16 -10z"/>
<path d="M9155 4720 c3 -5 8 -10 11 -10 2 0 4 5 4 10 0 6 -5 10 -11 10 -5 0
-7 -4 -4 -10z"/>
<path d="M6059 6652 c-76 -68 -34 -212 85 -288 l29 -18 -7 38 -7 39 63 -5 c83
-7 161 -41 202 -90 28 -32 35 -36 45 -24 14 17 7 50 -25 124 -83 189 -290 309
-385 224z"/>
<path d="M6885 6668 c-89 -32 -181 -121 -231 -224 -39 -82 -63 -179 -47 -195
8 -8 14 0 22 23 25 75 121 134 236 145 l65 6 -6 -32 c-8 -39 7 -41 53 -5 102
77 123 243 37 283 -31 14 -89 13 -129 -1z"/>
<path d="M6480 6139 c0 -18 9 -176 21 -353 19 -304 30 -385 43 -326 5 26 34
421 43 603 l6 107 -57 0 -56 0 0 -31z"/>
<path d="M7844 5758 c-83 -175 -247 -330 -464 -437 -196 -96 -358 -146 -630
-192 -158 -27 -552 -38 -705 -19 -435 52 -739 183 -887 382 -28 37 -53 66 -56
64 -19 -20 58 -328 105 -420 l26 -51 14 33 c12 30 16 32 66 32 57 0 127 -19
197 -52 128 -60 242 -95 410 -124 151 -27 620 -27 800 0 347 50 525 115 877
318 145 83 229 119 295 125 70 7 98 0 139 -34 l32 -28 -6 78 c-5 51 -18 107
-41 166 -35 92 -112 221 -132 221 -5 0 -24 -28 -40 -62z"/>
<path d="M7240 4662 c-122 -48 -238 -76 -430 -104 -50 -7 -196 -12 -357 -12
-150 0 -273 -3 -273 -7 0 -4 18 -23 40 -43 45 -40 51 -41 250 -37 265 5 497
47 674 121 86 36 147 69 186 100 35 28 19 24 -90 -18z"/>
<path d="M6584 3809 c-40 -11 -94 -72 -94 -104 0 -31 45 -84 87 -101 63 -27
149 -10 200 38 34 32 32 96 -4 129 -52 47 -115 60 -189 38z"/>
<path d="M8035 2774 c-94 -40 -177 -71 -267 -101 -194 -65 58 -16 298 57 137
42 128 38 114 55 -18 22 -77 18 -145 -11z"/>
<path d="M6825 2320 c-4 -6 8 -10 29 -10 19 0 38 5 41 10 4 6 -8 10 -29 10
-19 0 -38 -4 -41 -10z"/>
<path d="M5664 1958 c-7 -11 49 -34 103 -43 42 -7 110 2 99 12 -10 11 -197 39
-202 31z"/>
<path d="M6065 1890 c3 -5 21 -10 38 -9 27 0 29 2 12 9 -28 12 -57 12 -50 0z"/>
<path d="M6603 1733 c9 -2 23 -2 30 0 6 3 -1 5 -18 5 -16 0 -22 -2 -12 -5z"/>
<path d="M4288 1243 c7 -3 16 -2 19 1 4 3 -2 6 -13 5 -11 0 -14 -3 -6 -6z"/>
<path d="M4275 1210 c-3 -5 -1 -10 4 -10 6 0 11 5 11 10 0 6 -2 10 -4 10 -3 0
-8 -4 -11 -10z"/>
<path d="M4590 1211 c0 -5 5 -13 10 -16 6 -3 10 -2 10 4 0 5 -4 13 -10 16 -5
3 -10 2 -10 -4z"/>
<path d="M4187 1125 c-4 -8 -3 -16 1 -19 10 -6 26 6 30 22 3 17 -25 15 -31 -3z"/>
<path d="M4180 1065 c0 -18 5 -25 20 -25 24 0 28 35 4 44 -23 9 -24 8 -24 -19z"/>
<path d="M4241 1085 c1 -19 18 -51 18 -35 0 8 -4 22 -9 30 -5 8 -9 11 -9 5z"/>
<path d="M4391 944 c-10 -12 -10 -19 -2 -27 17 -17 13 -31 -4 -17 -9 7 -15 8
-15 2 0 -10 30 -25 37 -18 2 2 7 20 10 40 6 38 -3 45 -26 20z"/>
<path d="M4493 935 c-7 -11 -13 -16 -13 -12 0 10 -30 -18 -30 -29 0 -3 8 0 17
7 15 12 16 12 10 -3 -3 -10 -3 -18 2 -18 16 0 33 29 29 52 -3 22 -4 23 -15 3z"/>
<path d="M8496 1044 c-9 -24 2 -34 35 -34 31 0 59 -19 59 -41 0 -9 -3 -9 -14
0 -10 8 -16 9 -21 1 -3 -5 -1 -10 5 -10 6 0 8 -4 5 -10 -3 -5 1 -10 9 -10 9 0
15 -3 14 -7 -4 -15 23 -53 37 -53 18 0 19 12 4 27 -8 8 -5 13 11 18 18 6 20 9
9 16 -11 7 -11 9 -1 9 7 0 10 5 7 10 -3 6 -17 10 -31 10 -15 0 -24 6 -24 16 0
8 -13 29 -29 45 -33 32 -43 37 -35 14 4 -9 0 -15 -10 -15 -10 0 -13 6 -10 15
4 8 2 15 -4 15 -5 0 -13 -7 -16 -16z"/>
<path d="M8795 1007 c10 -43 16 -52 26 -35 11 19 1 55 -18 62 -12 5 -13 0 -8
-27z"/>
<path d="M8470 591 c0 -6 5 -13 10 -16 6 -3 10 1 10 9 0 9 -4 16 -10 16 -5 0
-10 -4 -10 -9z"/>
<path d="M8140 760 c0 -6 7 -10 15 -10 8 0 15 2 15 4 0 2 -7 6 -15 10 -8 3
-15 1 -15 -4z"/>
<path d="M8210 710 c0 -5 5 -10 10 -10 6 0 10 5 10 10 0 6 -4 10 -10 10 -5 0
-10 -4 -10 -10z"/>
<path d="M4877 976 c-6 -16 8 -30 39 -40 12 -4 24 -16 28 -28 7 -28 1 -34 -19
-18 -13 10 -15 9 -15 -8 0 -12 5 -24 11 -28 8 -4 7 -9 -2 -15 -9 -5 -10 -9 -3
-9 7 0 15 -11 18 -25 4 -14 11 -25 17 -25 6 0 9 9 6 20 -3 13 0 20 9 20 7 0
18 9 24 20 8 15 6 21 -11 30 -11 7 -18 18 -15 25 3 8 1 17 -4 20 -6 4 -10 15
-10 26 0 10 -4 19 -10 19 -5 0 -7 7 -4 15 4 8 1 15 -5 15 -6 0 -11 -7 -11 -15
0 -8 -7 -15 -16 -15 -14 0 -14 3 -4 15 10 12 10 15 -3 15 -8 0 -17 -6 -20 -14z"/>
<path d="M5148 846 c-5 -24 6 -56 15 -46 14 15 16 49 3 59 -11 9 -15 7 -18
-13z"/>
<path d="M4700 566 c0 -9 5 -16 10 -16 6 0 10 4 10 9 0 6 -4 13 -10 16 -5 3
-10 -1 -10 -9z"/>
<path d="M7649 959 c-61 -36 -67 -94 -28 -297 19 -95 110 -134 176 -74 25 24
32 39 38 88 9 84 -10 188 -47 247 -17 26 -37 47 -47 47 -9 0 -25 2 -36 5 -11
3 -36 -4 -56 -16z"/>
<path d="M7481 944 c0 -11 3 -14 6 -6 3 7 2 16 -1 19 -3 4 -6 -2 -5 -13z"/>
<path d="M7498 906 c-24 -18 -23 -25 2 -19 16 4 19 2 14 -11 -9 -22 24 -33 43
-14 13 14 12 18 -8 37 -26 24 -28 25 -51 7z"/>
<path d="M7518 793 c7 -3 16 -2 19 1 4 3 -2 6 -13 5 -11 0 -14 -3 -6 -6z"/>
<path d="M7775 470 c-3 -5 3 -10 14 -10 12 0 21 5 21 10 0 6 -6 10 -14 10 -8
0 -18 -4 -21 -10z"/>
<path d="M5579 943 c-46 -21 -65 -53 -73 -123 -3 -30 -9 -78 -12 -106 -8 -68
9 -127 47 -158 36 -30 65 -33 109 -8 49 26 77 99 79 204 3 111 -16 161 -70
188 -21 11 -40 20 -41 19 -2 0 -19 -7 -39 -16z"/>
<path d="M5430 921 c0 -5 -8 -12 -17 -14 -14 -4 -13 -5 4 -6 16 -1 21 -6 17
-16 -8 -20 22 -31 41 -15 13 10 12 15 -3 36 -17 23 -42 32 -42 15z"/>
<path d="M5613 443 c-20 -7 -15 -19 7 -19 11 0 20 6 20 13 0 14 -6 15 -27 6z"/>
<path d="M6160 1026 c0 -26 23 -36 35 -16 3 6 16 10 28 10 29 0 10 16 -30 25
-31 6 -33 5 -33 -19z"/>
<path d="M6345 990 c22 -24 31 -25 39 -4 4 12 2 15 -9 10 -8 -3 -15 -1 -15 4
0 6 -7 10 -17 10 -14 0 -14 -2 2 -20z"/>
<path d="M6890 750 c8 -14 21 -20 46 -20 22 0 33 4 29 10 -4 6 -15 8 -25 5
-11 -3 -20 0 -24 10 -3 8 -12 15 -21 15 -13 0 -14 -4 -5 -20z"/>
<path d="M6945 510 c-3 -5 -1 -10 4 -10 6 0 11 5 11 10 0 6 -2 10 -4 10 -3 0
-8 -4 -11 -10z"/>
<path d="M6095 490 c-4 -6 5 -10 20 -10 15 0 24 4 20 10 -3 6 -12 10 -20 10
-8 0 -17 -4 -20 -10z"/>
<path d="M6160 484 c0 -8 5 -12 10 -9 6 4 8 11 5 16 -9 14 -15 11 -15 -7z"/>
<path d="M6200 480 c0 -5 7 -10 16 -10 8 0 12 5 9 10 -3 6 -10 10 -16 10 -5 0
-9 -4 -9 -10z"/>
<path d="M6065 459 c-6 -8 72 -49 80 -41 8 8 -26 42 -36 36 -5 -3 -9 -1 -9 4
0 10 -29 12 -35 1z"/>
<path d="M6167 425 c-4 -8 -2 -17 3 -20 6 -4 10 3 10 14 0 25 -6 27 -13 6z"/>
<path d="M262 12700 c-24 -33 -47 -60 -51 -60 -12 0 -31 -56 -31 -90 0 -18
-11 -37 -34 -58 -19 -17 -37 -45 -41 -61 -4 -17 -10 -31 -15 -31 -4 0 -10 -9
-13 -21 -3 -12 -10 -18 -15 -15 -13 8 -32 -47 -32 -90 0 -40 12 -44 28 -9 6
14 15 24 19 23 14 -4 53 13 53 23 0 5 7 9 15 9 8 0 15 7 15 15 0 11 11 15 40
15 29 0 40 -4 40 -15 0 -8 -8 -15 -17 -15 -15 0 -16 -2 -3 -10 23 -15 26 -13
39 30 7 22 16 38 21 35 6 -4 10 1 10 9 0 9 4 16 9 16 6 0 12 19 14 43 l4 42 1
-42 c1 -30 6 -43 16 -43 8 0 18 -9 21 -20 3 -11 14 -20 24 -20 14 0 17 11 18
72 1 40 -3 81 -9 92 -10 19 -11 19 -27 -3 -16 -21 -22 -22 -76 -14 -67 9 -83
30 -47 62 12 9 24 29 27 44 4 15 11 27 16 27 5 0 9 6 9 13 0 7 9 21 21 30 12
11 18 25 15 33 -3 9 -6 22 -6 30 0 27 -16 14 -58 -46z"/>
<path d="M0 12736 c0 -9 8 -16 20 -16 27 0 25 -18 -2 -23 -21 -3 -21 -4 -4
-12 21 -9 37 10 34 40 -4 25 -48 35 -48 11z"/>
<path d="M538 12730 c-22 -21 -23 -50 -3 -50 18 0 28 20 23 48 -3 18 -4 18
-20 2z"/>
<path d="M2 12620 c0 -14 2 -19 5 -12 2 6 2 18 0 25 -3 6 -5 1 -5 -13z"/>
<path d="M5615 12520 c-3 -5 -2 -10 4 -10 5 0 13 5 16 10 3 6 2 10 -4 10 -5 0
-13 -4 -16 -10z"/>
<path d="M877 12386 c-31 -39 -27 -63 9 -63 33 0 36 -5 28 -37 -4 -18 -11 -25
-20 -22 -8 3 -14 -1 -14 -9 0 -8 -4 -15 -9 -15 -5 0 -11 -21 -13 -47 -4 -42
-1 -52 24 -77 15 -17 28 -26 28 -20 0 5 5 2 10 -6 6 -10 10 -11 10 -2 0 6 7
12 15 12 8 0 15 -4 15 -10 0 -5 4 -10 9 -10 5 0 8 19 8 43 0 23 1 69 4 101 3
42 0 61 -8 63 -7 3 -13 11 -13 19 0 8 -7 14 -16 14 -12 0 -15 10 -13 47 4 61
-17 68 -54 19z m17 -31 c3 -8 1 -15 -4 -15 -6 0 -10 7 -10 15 0 8 2 15 4 15 2
0 6 -7 10 -15z"/>
<path d="M5240 12403 c-8 -3 -19 -10 -25 -15 -5 -4 -22 -17 -37 -28 -15 -11
-32 -36 -38 -56 -11 -32 -10 -40 7 -63 11 -14 32 -27 46 -29 21 -3 32 5 57 40
27 37 31 50 29 100 -2 57 -7 63 -39 51z"/>
<path d="M281 12254 c0 -11 3 -14 6 -6 3 7 2 16 -1 19 -3 4 -6 -2 -5 -13z"/>
<path d="M168 12243 c7 -3 16 -2 19 1 4 3 -2 6 -13 5 -11 0 -14 -3 -6 -6z"/>
<path d="M157 12183 c-4 -3 -7 -22 -7 -42 0 -41 14 -70 24 -52 4 6 2 11 -4 11
-7 0 -10 6 -7 13 2 6 9 11 15 10 5 -1 13 4 16 13 3 8 2 13 -3 10 -4 -3 -6 6
-3 19 4 24 -15 35 -31 18z"/>
<path d="M200 12175 c0 -8 9 -15 20 -15 11 0 20 7 20 15 0 8 -9 15 -20 15 -11
0 -20 -7 -20 -15z"/>
<path d="M795 12160 c-8 -25 3 -80 16 -80 13 0 11 27 -3 50 -11 17 -10 22 1
29 8 5 9 11 3 15 -6 3 -13 -3 -17 -14z"/>
<path d="M39 12135 c-8 -16 -19 -36 -26 -43 -7 -7 -13 -34 -13 -60 1 -44 2
-46 15 -28 8 11 15 26 15 33 0 7 11 18 25 23 28 11 31 30 11 75 l-13 30 -14
-30z"/>
<path d="M1060 12095 c0 -8 -4 -15 -10 -15 -5 0 -10 -6 -10 -12 0 -22 -46 -38
-67 -23 -20 14 -73 15 -73 2 0 -5 -8 -6 -19 -2 -19 6 -35 -8 -45 -40 -8 -28
46 -58 90 -49 28 5 32 3 37 -23 10 -44 21 -55 50 -48 36 10 72 84 76 156 1 43
-2 58 -13 62 -10 4 -16 1 -16 -8z"/>
<path d="M800 12025 c1 -26 2 -28 11 -12 8 14 8 22 0 30 -8 8 -11 3 -11 -18z"/>
<path d="M160 11985 c0 -9 -7 -27 -16 -40 -15 -23 -15 -25 0 -25 9 0 16 7 16
16 0 8 5 12 10 9 6 -4 10 7 10 24 0 17 -4 31 -10 31 -5 0 -10 -7 -10 -15z"/>
<path d="M662 11908 c0 -18 5 -40 13 -48 7 -8 15 -28 17 -44 5 -47 28 -45 28
2 0 23 6 45 15 52 8 7 15 25 15 41 0 28 -2 29 -43 29 -43 0 -44 -1 -45 -32z"/>
<path d="M908 11863 c-16 -2 -28 -9 -28 -14 0 -5 -7 -9 -16 -9 -22 0 -43 -29
-44 -57 0 -13 -6 -23 -12 -23 -9 0 -8 -3 2 -10 8 -5 11 -12 7 -16 -4 -4 -2
-13 4 -20 6 -8 9 -20 6 -28 -9 -24 43 -31 85 -12 9 4 19 23 23 42 3 19 15 55
25 80 17 39 18 47 6 60 -8 8 -18 13 -23 13 -4 -1 -20 -4 -35 -6z"/>
<path d="M515 11767 c-23 -30 -34 -57 -29 -72 5 -11 0 -15 -17 -15 -18 0 -20
-3 -10 -9 23 -14 57 10 120 85 5 7 7 15 4 18 -11 11 -58 6 -68 -7z"/>
<path d="M940 11615 c-20 -21 -22 -34 -21 -123 0 -99 16 -166 33 -140 5 9 8 3
8 -14 0 -34 -4 -35 -42 -3 -37 32 -63 32 -84 0 -22 -33 -11 -61 24 -60 15 0
30 5 35 10 4 6 13 3 21 -8 16 -21 46 -17 66 8 17 21 43 147 31 154 -15 10 -26
161 -11 161 18 0 6 22 -17 31 -15 6 -27 2 -43 -16z m50 -191 c0 -9 -5 -14 -12
-12 -18 6 -21 28 -4 28 9 0 16 -7 16 -16z"/>
<path d="M4730 11380 c-8 -5 -12 -11 -10 -14 3 -2 14 2 24 10 22 15 10 19 -14
4z"/>
<path d="M797 11220 c6 -23 19 -26 26 -6 6 16 -1 26 -19 26 -7 0 -10 -8 -7
-20z"/>
<path d="M3030 2333 c0 -11 35 -32 53 -33 29 0 19 16 -18 27 -19 6 -35 9 -35
6z"/>
<path d="M3120 2287 c0 -17 20 -37 37 -37 19 0 16 20 -4 36 -23 17 -33 17 -33
1z"/>
<path d="M710 1021 c-16 -30 -12 -46 15 -73 28 -28 107 -43 137 -27 24 13 23
55 -3 91 -19 26 -23 28 -31 14 -11 -20 -32 -21 -48 -1 -18 21 -57 19 -70 -4z"/>
<path d="M2640 790 c-11 -26 -9 -35 9 -70 25 -48 26 -69 6 -76 -20 -8 -19 -40
1 -48 22 -9 37 3 31 25 -4 14 0 19 13 19 10 0 20 -6 23 -12 2 -7 3 -5 1 5 -1
9 9 26 22 36 13 10 24 25 24 33 0 18 -88 118 -105 118 -7 0 -18 -13 -25 -30z"/>
<path d="M707 776 c-8 -8 -24 -12 -40 -9 -25 5 -27 3 -27 -27 0 -32 1 -32 23
-17 22 14 26 14 52 -9 39 -34 61 -28 57 16 -4 55 -34 76 -65 46z"/>
<path d="M1320 605 c-10 -12 -10 -18 0 -30 11 -13 8 -15 -13 -15 -14 0 -27 6
-30 13 -2 7 -8 8 -13 3 -5 -5 -4 -11 4 -13 6 -3 12 -12 12 -20 0 -12 9 -15 44
-11 47 6 76 -5 76 -27 0 -23 26 -18 56 10 15 14 35 25 45 25 11 0 19 5 19 10
0 6 -7 10 -15 10 -8 0 -15 5 -15 11 0 5 -4 7 -10 4 -5 -3 -10 -2 -10 3 0 13
-39 24 -77 22 -18 -1 -33 3 -33 9 0 16 -26 13 -40 -4z"/>
<path d="M9 574 c-24 -30 31 -60 59 -32 10 10 17 7 35 -16 21 -26 24 -27 37
-11 10 12 11 24 4 43 -8 24 -14 26 -66 28 -39 1 -61 -3 -69 -12z"/>
<path d="M1620 568 c0 -4 -7 -8 -15 -8 -12 0 -14 -7 -9 -27 4 -16 11 -32 15
-37 12 -14 11 -83 -1 -91 -5 -3 -10 -2 -10 3 0 8 -43 26 -46 19 0 -1 -8 4 -17
12 -10 7 -17 9 -17 3 0 -7 -10 -7 -29 1 -17 6 -28 14 -25 18 2 4 -3 9 -11 13
-8 3 -15 1 -15 -5 0 -6 -3 -8 -7 -6 -5 3 -29 8 -55 11 -38 5 -49 3 -57 -11
-10 -17 -12 -17 -28 4 -26 31 -68 40 -81 16 -6 -10 -14 -16 -19 -13 -4 3 -9
-6 -11 -19 -2 -15 8 -37 27 -61 17 -22 31 -46 31 -54 0 -8 21 -35 46 -59 42
-41 46 -50 54 -108 9 -75 26 -123 40 -114 5 3 16 -8 25 -25 15 -29 18 -30 80
-30 l65 0 0 40 c0 29 -4 40 -15 40 -8 0 -15 7 -15 15 0 8 -11 22 -25 31 -30
19 -42 58 -25 78 10 13 20 12 73 -6 96 -32 94 -31 65 -36 -31 -4 -37 -27 -17
-64 11 -21 12 -21 25 3 19 36 28 98 15 113 -12 14 -5 46 13 58 6 4 11 51 12
114 1 66 5 109 12 113 7 4 11 24 10 44 -1 34 -3 37 -30 35 -15 -1 -28 -6 -28
-10z"/>
<path d="M656 508 c-11 -6 -37 -10 -58 -10 -21 1 -38 -2 -38 -6 0 -5 -16 -16
-35 -25 -28 -13 -35 -22 -35 -46 0 -16 4 -41 10 -55 l9 -26 36 21 c32 19 39
20 68 8 17 -8 37 -14 42 -14 6 0 20 -6 33 -13 15 -9 28 -10 40 -3 25 14 100
-7 113 -30 22 -43 49 -12 49 56 0 43 -12 56 -59 62 -46 6 -76 38 -46 49 26 10
17 31 -16 38 -47 9 -92 7 -113 -6z"/>
<path d="M3632 350 c2 -7 15 -20 29 -29 l24 -16 -16 24 c-17 27 -44 42 -37 21z"/>
<path d="M873 282 c-15 -2 -23 -10 -23 -23 0 -15 7 -19 35 -19 23 0 35 5 35
14 0 20 -21 33 -47 28z"/>
<path d="M3132 235 c-35 -38 -40 -60 -16 -69 15 -6 17 -47 1 -46 -13 1 -57
-49 -57 -65 0 -9 5 -25 10 -36 10 -18 25 -19 350 -19 262 0 339 3 343 13 3 9
9 9 28 -1 16 -8 54 -12 109 -10 l85 3 -32 20 c-30 17 -33 24 -33 66 0 52 9 45
-115 89 -33 12 -70 30 -81 41 -19 18 -26 19 -70 8 -29 -7 -61 -24 -78 -41 -27
-27 -29 -32 -18 -62 7 -18 12 -35 12 -39 0 -9 -89 -67 -104 -67 -21 0 -46 34
-46 62 0 29 -64 84 -110 95 -14 3 -27 9 -30 12 -12 15 -80 61 -80 55 0 -4 -8
0 -18 9 -16 15 -20 13 -50 -18z"/>
<path d="M350 243 c0 -11 7 -36 15 -54 l16 -34 -5 44 c-5 46 -26 82 -26 44z"/>
<path d="M965 214 c7 -42 25 -84 35 -84 24 0 11 93 -15 112 -21 16 -27 7 -20
-28z"/>
<path d="M9067 44 c-16 -16 -7 -44 14 -44 15 0 20 5 17 22 -3 22 -19 33 -31
22z"/>
</g>
</svg>
