<svg width="34" height="34" viewBox="0 0 34 34" fill="none" xmlns="http://www.w3.org/2000/svg">
<path d="M28.9744 8.48574C25.0784 5.57024 21.3455 5.65218 21.3455 5.65218L20.964 6.08806C25.5958 7.47764 27.7484 9.52104 27.7484 9.52104C21.1214 5.8725 12.6806 5.89868 5.78778 9.52104C5.78778 9.52104 8.02192 7.3685 12.9264 5.97892L12.6541 5.65184C12.6541 5.65184 8.94842 5.57024 5.02516 8.4854C5.02516 8.4854 1.10156 15.5421 1.10156 24.2339C1.10156 24.2339 3.39044 28.1575 9.41184 28.3482C9.41184 28.3482 10.4199 27.1494 11.2373 26.1141C7.77712 25.0788 6.46914 22.9262 6.46914 22.9262C8.6431 24.2866 10.8412 25.1379 13.5806 25.6782C18.0373 26.5955 23.581 25.6523 27.7215 22.9262C27.7215 22.9262 26.3591 25.1332 22.7898 26.1413C23.6072 27.1494 24.5881 28.321 24.5881 28.321C30.6095 28.1303 32.898 24.2067 32.898 24.2342C32.8977 15.5424 28.9744 8.48574 28.9744 8.48574ZM11.9183 21.7002C10.3924 21.7002 9.13916 20.365 9.13916 18.7031C9.25068 14.7227 14.6138 14.7349 14.6975 18.7031C14.6975 20.365 13.4711 21.7002 11.9183 21.7002ZM21.863 21.7002C20.3371 21.7002 19.0838 20.365 19.0838 18.7031C19.2062 14.7305 24.5024 14.7288 24.6421 18.7031C24.6421 20.365 23.4161 21.7002 21.863 21.7002Z" fill="#6665D2"/>
</svg>
