<svg width="30" height="30" viewBox="0 0 34 34" fill="none" xmlns="http://www.w3.org/2000/svg">
<path d="M7.22467 31.3084C6.51634 31.3084 5.94967 31.1667 5.24134 31.025C4.81634 30.8834 4.39134 30.6 4.10801 30.3167L3.96634 30.175C3.82467 30.0334 3.68301 29.75 3.68301 29.6084C3.68301 29.325 3.82467 29.1834 4.10801 29.0417C5.24134 28.475 6.23301 27.4834 6.79967 26.35C6.94134 26.2084 7.08301 26.0667 7.08301 25.925C3.11634 23.5167 0.708008 19.6917 0.708008 15.5834C0.708008 8.50005 8.07467 2.55005 16.9997 2.55005C25.9247 2.55005 33.2913 8.50005 33.2913 15.5834C33.2913 22.6667 25.9247 28.6167 16.9997 28.6167C16.1497 28.6167 15.158 28.6167 14.308 28.475C12.183 30.3167 9.63301 31.3084 7.22467 31.3084Z" fill="#645BEC"/>
</svg>
