<svg width="30" height="30" viewBox="0 0 40 32" fill="none" xmlns="http://www.w3.org/2000/svg">
<g clip-path="url(#clip0_365_36249)">
<path d="M26.3146 0.0158883V0.00878906H28.1604L28.8348 0.143675C29.2844 0.231245 29.6926 0.346005 30.0594 0.48799C30.4262 0.629976 30.7812 0.795638 31.1243 0.98494C31.4675 1.17424 31.7787 1.36713 32.0579 1.56353C32.3348 1.75759 32.5833 1.96347 32.8033 2.18117C33.021 2.40125 33.3606 2.45804 33.822 2.35155C34.2835 2.24506 34.7804 2.09715 35.3129 1.90785C35.8453 1.71854 36.3719 1.50557 36.8925 1.26891C37.4131 1.03226 37.7302 0.882 37.8438 0.818107C37.955 0.751871 38.0142 0.716374 38.0213 0.711618L38.0284 0.700969L38.0639 0.683221L38.0994 0.665472L38.1349 0.647724L38.1704 0.629976L38.1774 0.619327L38.1881 0.612228L38.1988 0.605128L38.2058 0.59448L38.2413 0.583831L38.2768 0.576731L38.2698 0.629976L38.2591 0.683221L38.2413 0.736465L38.2236 0.78971L38.2058 0.825206L38.1881 0.860702L38.1704 0.913947C38.1585 0.949443 38.1467 0.99676 38.1349 1.05593C38.123 1.11511 38.0106 1.35172 37.7976 1.76586C37.5847 2.18 37.3184 2.60003 36.999 3.02598C36.6795 3.45194 36.3932 3.77375 36.14 3.99148C35.8844 4.21156 35.7152 4.36537 35.6324 4.45294C35.5495 4.54285 35.449 4.62566 35.3306 4.70141L35.1532 4.81855L35.1177 4.8363L35.0822 4.85405L35.0751 4.8647L35.0644 4.87179L35.0538 4.87889L35.0467 4.88954L35.0112 4.90729L34.9757 4.92504L34.9686 4.93569L34.9579 4.94279L34.9473 4.94989L34.9402 4.96054L34.9331 4.97118L34.9224 4.97828L34.9118 4.98538L34.9047 4.99603H35.0822L36.0761 4.78305C36.7387 4.64107 37.3717 4.46951 37.9751 4.26836L38.9335 3.94889L39.04 3.91339L39.0933 3.89564L39.1288 3.8779L39.1642 3.86015L39.1997 3.8424L39.2352 3.82465L39.3062 3.814L39.3772 3.8069V3.8779L39.3595 3.88499L39.3417 3.89564L39.3347 3.90629L39.324 3.91339L39.3133 3.92049L39.3062 3.93114L39.2992 3.94179L39.2885 3.94889L39.2778 3.95599L39.2707 3.96664L39.2637 3.97729L39.253 3.98439L39.2352 4.01988L39.2175 4.05538L39.2068 4.06248C39.2021 4.06958 39.0519 4.2707 38.756 4.66592C38.4603 5.06348 38.3005 5.2646 38.2768 5.26935C38.2532 5.27645 38.22 5.31195 38.1774 5.37584C38.1372 5.44208 37.8864 5.70596 37.4249 6.16741C36.9635 6.62887 36.5115 7.03942 36.069 7.39914C35.6241 7.7612 35.3993 8.20608 35.3946 8.7338C35.3875 9.25915 35.3602 9.85315 35.3129 10.5157C35.2656 11.1783 35.1768 11.8942 35.0467 12.6633C34.9165 13.4324 34.7154 14.302 34.4432 15.2722C34.1711 16.2425 33.8398 17.189 33.4493 18.1119C33.0589 19.0349 32.6507 19.8631 32.2247 20.5967C31.7987 21.3303 31.4083 21.9515 31.0533 22.4603C30.6984 22.969 30.3375 23.4482 29.9707 23.8979C29.6039 24.3475 29.1401 24.8539 28.5793 25.4171C28.016 25.9779 27.7084 26.2856 27.6564 26.34C27.6019 26.3921 27.37 26.5861 26.9606 26.9222C26.5536 27.2605 26.1158 27.5989 25.6472 27.9373C25.181 28.2734 24.7527 28.5538 24.3623 28.7786C23.9718 29.0034 23.5009 29.2602 22.9495 29.5489C22.4005 29.84 21.8065 30.1097 21.1676 30.3582C20.5286 30.6067 19.8542 30.8374 19.1443 31.0504C18.4344 31.2634 17.7481 31.429 17.0855 31.5473C16.4229 31.6656 15.6716 31.7662 14.8315 31.8491L13.5713 31.9733V31.991H11.2641V31.9733L10.9624 31.9555C10.7612 31.9437 10.5956 31.9319 10.4654 31.92C10.3353 31.9082 9.84422 31.8431 8.99231 31.7248C8.1404 31.6065 7.47189 31.4882 6.98676 31.3699C6.50167 31.2515 5.77988 31.0267 4.82148 30.6954C3.86308 30.3641 3.04311 30.0293 2.36158 29.6909C1.68243 29.3548 1.25647 29.1418 1.08371 29.0519C0.913327 28.9644 0.721647 28.8555 0.508668 28.7254L0.189201 28.5301L0.182137 28.5195L0.171453 28.5124L0.160804 28.5053L0.153704 28.4946L0.118208 28.4769L0.0827116 28.4591L0.0756478 28.4485L0.0649634 28.4414L0.0543144 28.4343L0.0472152 28.4237L0.0401514 28.413L0.029467 28.4059H0.0117188V28.3349L0.0472152 28.342L0.0827116 28.3527L0.242445 28.3704C0.348935 28.3822 0.638834 28.4 1.11211 28.4237C1.58542 28.4473 2.08826 28.4473 2.6207 28.4237C3.15315 28.4 3.69745 28.3467 4.25354 28.2639C4.80966 28.1811 5.46634 28.0391 6.22359 27.838C6.98087 27.6368 7.6766 27.3978 8.31081 27.1209C8.94265 26.8417 9.39225 26.6335 9.65968 26.4962C9.92469 26.3613 10.3294 26.1105 10.8736 25.7437L11.69 25.1935L11.6971 25.1828L11.7078 25.1757L11.7185 25.1686L11.7255 25.158L11.7326 25.1473L11.7433 25.1402L11.754 25.1331L11.761 25.1225L11.7965 25.1118L11.832 25.1047L11.8391 25.0692L11.8498 25.0337L11.8605 25.0266L11.8675 25.016L11.5835 24.9982C11.3942 24.9864 11.2108 24.9746 11.0334 24.9628C10.8559 24.9509 10.5778 24.8977 10.1992 24.803C9.82058 24.7083 9.41237 24.5664 8.97456 24.3771C8.53678 24.1878 8.11083 23.9629 7.69669 23.7026C7.28259 23.4423 6.98321 23.2258 6.79863 23.053C6.61643 22.8826 6.37977 22.6413 6.0887 22.3289C5.80001 22.0142 5.54916 21.6912 5.33618 21.3599C5.1232 21.0286 4.9197 20.6464 4.72568 20.2133L4.43102 19.5673L4.41327 19.5141L4.39552 19.4608L4.38488 19.4253L4.37778 19.3898L4.43102 19.3969L4.48427 19.4076L4.87473 19.4608C5.13506 19.4963 5.54327 19.5081 6.09935 19.4963C6.65547 19.4845 7.04001 19.4608 7.25299 19.4253C7.46596 19.3898 7.59613 19.3661 7.64345 19.3543L7.71444 19.3366L7.80318 19.3188L7.89192 19.3011L7.89902 19.2904L7.90967 19.2833L7.92035 19.2762L7.92742 19.2656L7.85642 19.2478L7.78543 19.2301L7.71444 19.2123L7.64345 19.1946L7.57245 19.1768C7.52514 19.165 7.44232 19.1413 7.32398 19.1058C7.20567 19.0704 6.8862 18.9402 6.36557 18.7154C5.84498 18.4906 5.43085 18.2717 5.1232 18.0587C4.81479 17.8451 4.52072 17.6115 4.24289 17.3594C3.96602 17.1039 3.66196 16.7749 3.33063 16.3726C2.99934 15.9703 2.70355 15.503 2.44322 14.9705C2.18293 14.4381 1.9877 13.9293 1.85753 13.4442C1.72789 12.9619 1.64236 12.4688 1.60199 11.9711L1.53806 11.2256L1.57356 11.2327L1.60906 11.2434L1.64455 11.2611L1.68005 11.2789L1.71555 11.2966L1.75104 11.3144L2.30124 11.5629C2.66806 11.7285 3.12358 11.8705 3.66785 11.9888C4.21215 12.1071 4.53751 12.1722 4.644 12.1841L4.80373 12.2018H5.1232L5.11614 12.1912L5.10545 12.1841L5.0948 12.177L5.0877 12.1663L5.08064 12.1557L5.06996 12.1486L5.05931 12.1415L5.05221 12.1308L5.01671 12.1131L4.98122 12.0953L4.97415 12.0847L4.96347 12.0776L4.95282 12.0705L4.94572 12.0598L4.91022 12.0421L4.87473 12.0243L4.86766 12.0137C4.86056 12.0089 4.75879 11.9332 4.56236 11.7865C4.3683 11.6374 4.1648 11.4446 3.95182 11.2079C3.73884 10.9712 3.52586 10.7228 3.31288 10.4625C3.09951 10.2016 2.90947 9.92246 2.74494 9.62831C2.57932 9.33252 2.40418 8.95622 2.21959 8.49953C2.03739 8.04517 1.89896 7.58727 1.80429 7.12582C1.70965 6.66436 1.65641 6.20884 1.64455 5.7592C1.63273 5.30957 1.64455 4.92504 1.68005 4.60557C1.71555 4.2861 1.78654 3.92521 1.89303 3.52293C1.99952 3.12065 2.15336 2.69469 2.35448 2.24506L2.6562 1.57063L2.67395 1.51739L2.6917 1.46414L2.70238 1.45704L2.70945 1.44639L2.71654 1.43574L2.72719 1.42864L2.73788 1.43574L2.74494 1.44639L2.75204 1.45704L2.76269 1.46414L2.77337 1.47124L2.78044 1.48189L2.78754 1.49254L2.79819 1.49964L2.81593 1.53513L2.83368 1.57063L2.84437 1.57773L2.85143 1.58838L3.33063 2.12082C3.6501 2.47579 4.02874 2.87218 4.46652 3.30995C4.90433 3.74773 5.14688 3.97491 5.19419 3.99148C5.24155 4.0104 5.30068 4.06482 5.37168 4.15477C5.44267 4.24234 5.67932 4.45177 6.0816 4.78305C6.48392 5.11434 7.01044 5.49891 7.66119 5.93669C8.31198 6.37446 9.03373 6.80635 9.82647 7.2323C10.6193 7.65826 11.4712 8.04279 12.3822 8.38594C13.2933 8.72908 13.9322 8.95388 14.299 9.06037C14.6658 9.16686 15.2929 9.30292 16.1803 9.46858C17.0677 9.63424 17.7363 9.74073 18.1859 9.78804C18.6355 9.83536 18.9432 9.86259 19.1088 9.86969L19.3573 9.87679L19.3502 9.82354L19.3395 9.7703L19.2685 9.32659C19.2212 9.0308 19.1975 8.61666 19.1975 8.08422C19.1975 7.55177 19.2389 7.06075 19.3218 6.61112C19.4046 6.16149 19.5288 5.70596 19.6945 5.24451C19.8601 4.78305 20.0222 4.41268 20.1808 4.13347C20.3417 3.8566 20.5523 3.54068 20.8126 3.18572C21.0729 2.83075 21.4102 2.46397 21.8243 2.08533C22.2384 1.70669 22.7117 1.36947 23.2441 1.07368C23.7766 0.777889 24.2676 0.553055 24.7172 0.399249C25.1668 0.245443 25.5455 0.144847 25.8531 0.09753C26.1607 0.0502134 26.3146 0.0229876 26.3146 0.0158883Z" fill="#5DA8DC" stroke="#5DA8DC" stroke-width="1.12646"/>
</g>
<defs>
<clipPath id="clip0_365_36249">
<rect width="39.3895" height="32" fill="white"/>
</clipPath>
</defs>
</svg>
